<?xml version="1.0" encoding="utf-8"?>
<!-- Generator: Adobe Illustrator 27.0.0, SVG Export Plug-In . SVG Version: 6.00 Build 0)  -->
<svg version="1.1" id="Layer_1" xmlns="http://www.w3.org/2000/svg" xmlns:xlink="http://www.w3.org/1999/xlink" x="0px" y="0px"
	 viewBox="0 0 252.9 82.5" style="enable-background:new 0 0 252.9 82.5;" xml:space="preserve">
<style type="text/css">
	.st0{enable-background:new    ;}
	.st1{fill:#FFFFFF;}
	.st2{fill:#6B30E9;}
</style>
<g class="st0">
	<path class="st1" d="M6.6,64.9V17.7h23.6c5.7,0,10.1,1.4,13.3,4.2s4.8,6.9,4.8,12.2c0,5.4-1.6,9.4-4.8,12.3
		c-3.2,2.8-7.6,4.2-13.3,4.2H15.8V65L6.6,64.9L6.6,64.9z M30.2,25H15.8v18.2h14.4c2.8,0,4.9-0.8,6.3-2.3c1.5-1.5,2.2-3.8,2.2-6.9
		c0-3-0.7-5.3-2.2-6.8C35.1,25.8,33,25,30.2,25z"/>
	<path class="st1" d="M54,12.2V5h9.4v7.2H54z M54.1,50.5V17.7h9.3v32.9h-9.3V50.5z"/>
	<path class="st1" d="M87.2,50.9c-5.7,0-10.1-1.4-13.3-4.2s-4.8-7-4.8-12.5s1.6-9.7,4.8-12.5s7.6-4.2,13.3-4.2h21.4v7.3H87.2
		c-2.8,0-4.9,0.8-6.3,2.3c-1.5,1.5-2.2,3.9-2.2,7.1c0,3.2,0.7,5.6,2.2,7.1s3.6,2.3,6.3,2.3h22v7.3C109.2,50.9,87.2,50.9,87.2,50.9z"
		/>
	<path class="st1" d="M114,50.5V4.9h9.3v12.8h22.1c3.7,0,6.6,0.9,8.6,2.6c2,1.8,3,4.3,3,7.6c0,5.4-2.6,8.6-7.7,9.6l7.8,13.1h-10.4
		l-7.5-12.7h-15.8v12.7L114,50.5L114,50.5z M144.9,24.9h-21.6v5.6h21.6c0.9,0,1.5-0.3,2-0.8s0.7-1.2,0.7-2.1
		C147.7,25.9,146.7,24.9,144.9,24.9z"/>
	<path class="st1" d="M179,50.9c-5.7,0-10.1-1.4-13.3-4.2c-3.2-2.8-4.8-7-4.8-12.5s1.6-9.7,4.8-12.5c3.2-2.8,7.6-4.2,13.3-4.2h16
		c3.7,0,6.6,0.9,8.6,2.6c2,1.8,3,4.3,3,7.6c0,6.7-3.9,10-11.6,10h-24.1c0.9,4,3.6,5.9,8.2,5.9h25.8v7.3H179z M179,24.7
		c-4.4,0-7.1,1.9-8.1,5.6h23.6c0.9,0,1.5-0.3,2-0.8s0.7-1.2,0.7-2.1c0-1.8-0.9-2.7-2.7-2.7H179z"/>
	<path class="st1" d="M212.2,50.5V17.7h25.1c3.7,0,6.4,0.9,8.2,2.8c1.7,1.9,2.6,4.3,2.6,7.3v6.8h-9.4v-5.7c0-2.6-1.3-3.8-3.8-3.8
		h-13.3v25.5L212.2,50.5L212.2,50.5z"/>
</g>
<rect x="6.6" y="74.3" class="st1" width="241.5" height="3.5"/>
<rect x="6.6" y="74.3" class="st2" width="74.5" height="3.5"/>
<polygon class="st1" points="31.3,33.8 22.7,28.9 22.7,38.7 "/>
</svg>
