<?xml version="1.0" encoding="utf-8"?>
<!-- Generator: Adobe Illustrator 27.0.0, SVG Export Plug-In . SVG Version: 6.00 Build 0)  -->
<svg version="1.1" id="Layer_1" xmlns="http://www.w3.org/2000/svg" xmlns:xlink="http://www.w3.org/1999/xlink" x="0px" y="0px"
	 viewBox="0 0 482.7 107" style="enable-background:new 0 0 482.7 107;" xml:space="preserve">
<style type="text/css">
	.st0{enable-background:new    ;}
	.st1{fill:#6B30E9;}
</style>
<g class="st0">
	<path d="M113.1,79.6V32.4h23.6c5.7,0,10.1,1.4,13.3,4.2c3.2,2.8,4.8,6.9,4.8,12.2c0,5.4-1.6,9.4-4.8,12.3
		c-3.2,2.8-7.6,4.2-13.3,4.2h-14.4v14.4H113.1z M136.7,39.8h-14.4V58h14.4c2.8,0,4.9-0.8,6.3-2.3c1.5-1.5,2.2-3.8,2.2-6.9
		c0-3-0.7-5.3-2.2-6.8C141.6,40.5,139.5,39.8,136.7,39.8z"/>
	<path d="M160.5,27v-7.2h9.4V27H160.5z M160.6,65.3V32.4h9.3v32.9H160.6z"/>
	<path d="M193.7,65.6c-5.7,0-10.1-1.4-13.3-4.2c-3.2-2.8-4.8-7-4.8-12.5c0-5.5,1.6-9.7,4.8-12.5c3.2-2.8,7.6-4.2,13.3-4.2h21.4v7.3
		h-21.4c-2.8,0-4.9,0.8-6.3,2.3c-1.5,1.5-2.2,3.9-2.2,7.1c0,3.2,0.7,5.6,2.2,7.1c1.5,1.5,3.6,2.3,6.3,2.3h22v7.3H193.7z"/>
	<path d="M220.5,65.3V19.7h9.3v12.8h22.1c3.7,0,6.6,0.9,8.6,2.6c2,1.8,3,4.3,3,7.6c0,5.4-2.6,8.6-7.7,9.6l7.8,13.1h-10.4l-7.5-12.7
		h-15.8v12.7H220.5z M251.4,39.7h-21.6v5.6h21.6c0.9,0,1.5-0.3,2-0.8s0.7-1.2,0.7-2.1C254.2,40.6,253.2,39.7,251.4,39.7z"/>
	<path d="M285.5,65.6c-5.7,0-10.1-1.4-13.3-4.2c-3.2-2.8-4.8-7-4.8-12.5c0-5.5,1.6-9.7,4.8-12.5c3.2-2.8,7.6-4.2,13.3-4.2h16
		c3.7,0,6.6,0.9,8.6,2.6c2,1.8,3,4.3,3,7.6c0,6.7-3.9,10-11.6,10h-24.1c0.9,4,3.6,5.9,8.2,5.9h25.8v7.3H285.5z M285.5,39.4
		c-4.4,0-7.1,1.9-8.1,5.6H301c0.9,0,1.5-0.3,2-0.8c0.5-0.5,0.7-1.2,0.7-2.1c0-1.8-0.9-2.7-2.7-2.7H285.5z"/>
	<path d="M318.7,65.3V32.4h25.1c3.7,0,6.4,0.9,8.2,2.8c1.7,1.9,2.6,4.3,2.6,7.3v6.8h-9.4v-5.7c0-2.6-1.3-3.8-3.8-3.8h-13.3v25.5
		H318.7z"/>
</g>
<rect x="113.1" y="89" width="241.5" height="3.5"/>
<rect x="113.1" y="89" class="st1" width="74.5" height="3.5"/>
<polygon points="137.8,48.6 129.2,43.6 129.2,53.5 "/>
</svg>
