<svg width="27" height="27" viewBox="0 0 27 27" fill="none" xmlns="http://www.w3.org/2000/svg">
<rect width="27" height="27" rx="4" fill="#363636"/>
<path d="M9.22 5H16.78C19.66 5 22 7.34 22 10.22V17.78C22 19.1644 21.45 20.4922 20.4711 21.4711C19.4922 22.45 18.1644 23 16.78 23H9.22C6.34 23 4 20.66 4 17.78V10.22C4 8.83557 4.54996 7.50784 5.5289 6.5289C6.50784 5.54996 7.83557 5 9.22 5ZM9.04 6.8C8.1807 6.8 7.35659 7.14136 6.74897 7.74897C6.14136 8.35659 5.8 9.1807 5.8 10.04V17.96C5.8 19.751 7.249 21.2 9.04 21.2H16.96C17.8193 21.2 18.6434 20.8586 19.251 20.251C19.8586 19.6434 20.2 18.8193 20.2 17.96V10.04C20.2 8.249 18.751 6.8 16.96 6.8H9.04ZM17.725 8.15C18.0234 8.15 18.3095 8.26853 18.5205 8.4795C18.7315 8.69048 18.85 8.97663 18.85 9.275C18.85 9.57337 18.7315 9.85952 18.5205 10.0705C18.3095 10.2815 18.0234 10.4 17.725 10.4C17.4266 10.4 17.1405 10.2815 16.9295 10.0705C16.7185 9.85952 16.6 9.57337 16.6 9.275C16.6 8.97663 16.7185 8.69048 16.9295 8.4795C17.1405 8.26853 17.4266 8.15 17.725 8.15ZM13 9.5C14.1935 9.5 15.3381 9.97411 16.182 10.818C17.0259 11.6619 17.5 12.8065 17.5 14C17.5 15.1935 17.0259 16.3381 16.182 17.182C15.3381 18.0259 14.1935 18.5 13 18.5C11.8065 18.5 10.6619 18.0259 9.81802 17.182C8.97411 16.3381 8.5 15.1935 8.5 14C8.5 12.8065 8.97411 11.6619 9.81802 10.818C10.6619 9.97411 11.8065 9.5 13 9.5ZM13 11.3C12.2839 11.3 11.5972 11.5845 11.0908 12.0908C10.5845 12.5972 10.3 13.2839 10.3 14C10.3 14.7161 10.5845 15.4028 11.0908 15.9092C11.5972 16.4155 12.2839 16.7 13 16.7C13.7161 16.7 14.4028 16.4155 14.9092 15.9092C15.4155 15.4028 15.7 14.7161 15.7 14C15.7 13.2839 15.4155 12.5972 14.9092 12.0908C14.4028 11.5845 13.7161 11.3 13 11.3Z" fill="white"/>
</svg>
