<svg width="162" height="58" viewBox="0 0 162 58" fill="none" xmlns="http://www.w3.org/2000/svg">
<path d="M37.5793 57.917C37.474 57.8482 37.0886 57.704 36.7224 57.5966C36.2714 57.4642 35.9533 57.2718 35.7344 56.9995C35.3067 56.4702 34.8684 55.9493 34.4197 55.4372C34.2615 55.2577 34.1323 55.0396 34.1323 54.9522C34.1323 54.8651 34.0845 54.7748 34.0259 54.7516C33.9677 54.7284 33.7386 54.3816 33.5167 53.9808L33.114 53.2517L33.6977 53.0048C34.0187 52.8692 34.3538 52.7586 34.4425 52.7586C34.7139 52.7586 35.0027 53.1586 35.5759 54.332C35.6772 54.5397 35.9378 54.8744 36.1549 55.075C36.5892 55.4775 36.5845 55.6627 36.143 55.5696C35.8625 55.5107 35.8618 55.5139 36.1046 55.708C36.2418 55.8176 36.4596 55.8733 36.591 55.8322C36.7614 55.7787 37.026 55.9414 37.5225 56.4046C37.9036 56.7601 38.3885 57.1105 38.5998 57.183C38.8108 57.2558 38.9834 57.3553 38.9834 57.4046C38.9834 57.8 37.968 58.1708 37.5793 57.917ZM38.9856 57.9488C38.991 57.6869 39.2205 57.5195 39.4217 57.6305C39.6077 57.7333 39.5936 57.7664 39.3091 57.8946C39.13 57.9745 38.9845 57.9991 38.9856 57.9488ZM106.452 57.9138C106.406 57.8414 105.79 57.6754 105.56 57.6737C105.413 57.6726 104.732 57.2772 104.732 57.193C104.732 57.1426 104.39 56.713 103.973 56.238C103.556 55.7634 103.025 55.065 102.793 54.6867C102.56 54.3084 102.214 53.7624 102.022 53.4734C101.83 53.1839 101.671 52.9163 101.67 52.8785C101.669 52.841 102.084 52.8092 102.593 52.8082C103.632 52.806 103.646 52.8153 104.175 53.8506C104.359 54.2089 104.905 54.9172 105.389 55.4243C105.765 55.8165 106.139 56.2099 106.511 56.6045C106.644 56.7465 107.161 57.0659 107.659 57.3143C108.522 57.7443 108.548 57.7704 108.213 57.8585C107.735 57.9841 106.52 58.0227 106.452 57.9138ZM104.796 55.7798C105.093 55.4557 104.852 55.4525 104.459 55.7755C104.23 55.9636 104.206 56.0242 104.361 56.0274C104.473 56.0296 104.669 55.9182 104.796 55.7798ZM104.03 54.3951C104.13 54.2356 103.961 54.2356 103.711 54.3951C103.546 54.5001 103.549 54.5172 103.735 54.519C103.854 54.52 103.986 54.4644 104.03 54.3951ZM5.41131 57.825L4.58548 57.7807L5.27271 57.441C5.80179 57.1798 5.9925 57.006 6.10143 56.6862C6.17924 56.4578 6.32762 56.2169 6.43148 56.1509C6.58239 56.0553 6.58709 56.0107 6.455 55.9261C6.3439 55.8554 6.31676 55.6809 6.37213 55.3911C6.44595 55.0061 6.45536 53.988 6.41338 50.9956C6.39348 49.5682 6.39239 49.5721 6.69132 49.6492C6.85815 49.692 6.93595 49.6635 6.90483 49.5696C6.87769 49.4886 6.73076 49.404 6.5784 49.3819C6.42569 49.3598 6.30084 49.273 6.30084 49.1892C6.30084 49.1057 6.20059 48.9479 6.07755 48.8387C5.95451 48.7292 5.76596 48.5326 5.65776 48.4016C5.54991 48.2703 5.33097 48.0783 5.17138 47.9744C4.90539 47.8013 5.02445 47.7842 6.5965 47.7696L8.31186 47.7539L8.25974 48.5879C8.21907 49.1627 8.15897 49.736 8.07952 50.3069C8.00895 50.7937 7.97783 51.4025 8.01004 51.6601C8.05962 52.0545 8.03139 52.1287 7.8309 52.1287C7.6999 52.1287 7.55225 52.1936 7.50231 52.2729C7.44006 52.3728 7.51751 52.3971 7.75418 52.3524L8.09617 52.2882L8.08169 53.4991C8.04695 56.3479 8.23803 56.9978 9.24517 57.4503C9.99066 57.785 10.0612 57.9831 9.39716 57.8749C9.13371 57.8321 8.72441 57.7964 8.48773 57.7953C8.11933 57.7943 8.08025 57.7668 8.21632 57.6051C8.38785 57.401 8.2174 57.3403 8.018 57.5348C7.95141 57.5998 7.60943 57.6801 7.25839 57.7133C6.90736 57.7461 6.53389 57.7946 6.42858 57.821C6.32363 57.8478 5.86512 57.8496 5.41131 57.825ZM7.39808 55.3854C7.64055 55.1178 7.64019 55.1171 7.32209 55.2184C7.14693 55.2741 6.86683 55.3101 6.70036 55.298C6.44487 55.2802 6.42243 55.3058 6.55633 55.465C6.78034 55.7312 7.11328 55.6995 7.39808 55.3854ZM7.64164 53.2621C7.68506 53.1925 7.66299 53.1361 7.59278 53.1361C7.52257 53.1361 7.42957 53.1925 7.3865 53.2617C7.34308 53.331 7.36479 53.3877 7.435 53.3877C7.5052 53.3877 7.59821 53.3313 7.64164 53.2621ZM28.0044 57.7829C28.0044 57.6901 28.6012 57.4171 28.8082 57.4149C29.0633 57.4124 29.5363 56.5681 29.6746 55.8697C29.7459 55.5086 29.7951 54.5618 29.7838 53.7653C29.7202 49.3073 29.7448 49.5985 29.3717 48.8759C29.1809 48.5062 29.0499 48.1632 29.0811 48.1136C29.1122 48.0644 28.9453 48.0183 28.7105 48.0119C28.4753 48.0051 28.1774 47.9334 28.0482 47.8527C27.8499 47.7289 27.8807 47.7171 28.2436 47.7771C28.4807 47.8163 28.9689 47.8549 29.329 47.8627C29.6887 47.8709 29.8819 47.9038 29.7582 47.9355C29.6344 47.9676 29.5664 48.0458 29.6062 48.1097C29.7274 48.3031 30.1208 48.241 30.4649 47.9741C30.6433 47.836 30.9694 47.7225 31.1887 47.7225H31.5886L31.5035 49.1389C31.4569 49.9179 31.4218 51.8154 31.425 53.3563L31.4315 56.1577H31.1221C30.9394 56.1577 30.8131 56.2308 30.8131 56.3376C30.8131 56.4778 30.8977 56.4935 31.1959 56.4089C31.5354 56.3133 31.5871 56.3347 31.6548 56.6002C31.6968 56.7647 31.8691 56.9888 32.0381 57.098C32.2067 57.2069 32.3449 57.3835 32.3449 57.4895C32.3449 57.5959 32.392 57.6544 32.4499 57.6191C32.5074 57.5841 32.8064 57.6287 33.1147 57.7186C33.6307 57.8685 33.5547 57.8774 32.1481 57.83C31.3085 57.8014 30.5641 57.78 30.4939 57.7821C28.5715 57.8439 28.0044 57.8439 28.0044 57.7829ZM53.2831 57.7782C53.2828 57.735 53.4684 57.6629 53.6957 57.618C53.9385 57.5702 54.3471 57.3054 54.6858 56.9767C55.0864 56.5874 55.4943 56.3415 56.0248 56.1688C56.8235 55.909 56.9784 55.9539 56.9827 56.4478C56.9838 56.5727 57.2715 56.9464 57.6222 57.2783L58.2598 57.881L55.7719 57.8689C54.4036 57.8624 53.2835 57.8218 53.2831 57.7782ZM73.9684 57.8189L73.1426 57.7807L73.8283 57.441C74.3762 57.1698 74.5467 57.0092 74.6744 56.6437C74.9784 55.7755 75.1601 52.9448 74.9705 52.0359C74.9234 51.8114 74.9259 51.2908 74.9752 50.8786C75.0244 50.4664 75.0327 50.1488 74.9933 50.1727C74.9538 50.1966 74.9165 49.9697 74.91 49.6685C74.8966 49.07 74.5188 48.5429 73.6749 47.9452C73.4882 47.8131 73.7433 47.7846 75.1583 47.781L76.8668 47.7764L76.8136 48.5993C76.7768 49.1267 76.7244 49.6529 76.6565 50.1773C76.5993 50.5927 76.5747 51.7825 76.6015 52.8214C76.705 56.8143 76.7857 57.209 77.5714 57.5737C77.8345 57.6961 78.0498 57.8096 78.0498 57.8264C78.0498 57.8699 74.9509 57.8642 73.9684 57.8189ZM75.6953 57.3493C75.5589 57.2479 75.3866 57.1666 75.3124 57.1687C75.2379 57.1708 75.2886 57.2558 75.4246 57.3575C75.5614 57.4592 75.7337 57.5406 75.8082 57.5384C75.8824 57.5363 75.8318 57.451 75.6953 57.3493ZM76.8686 57.4556C76.7214 57.424 76.5691 57.424 76.422 57.4556C76.299 57.487 76.3996 57.5131 76.6453 57.5131C76.8914 57.5131 76.9916 57.487 76.8686 57.4556ZM76.2624 48.6964C76.5374 48.6464 76.5255 48.6357 76.1756 48.6211C75.8618 48.6079 75.7087 48.6871 75.505 48.9694C75.1257 49.4947 75.189 49.6192 75.5973 49.1514C75.7876 48.933 76.0869 48.7281 76.2624 48.6964ZM78.885 57.7854C78.9252 57.7211 79.032 57.6683 79.1221 57.6683C79.2122 57.6683 79.4242 57.552 79.5932 57.4099C79.7626 57.2679 80.1017 57.0252 80.3474 56.87C80.5931 56.7151 81.0242 56.2505 81.305 55.8379L81.816 55.0875L81.8598 55.5906C81.884 55.8679 81.8359 56.4767 81.7526 56.9442L81.601 57.7939L80.8787 57.8121C80.4813 57.8221 79.8538 57.8464 79.4839 57.8664C79.0931 57.8871 78.8423 57.8532 78.885 57.7854ZM96.8167 57.7829C96.8167 57.6858 97.4188 57.4164 97.6356 57.4164C97.7282 57.4164 97.9479 57.2022 98.1234 56.9403C98.3746 56.5659 98.4708 56.1962 98.574 55.2095C98.6464 54.519 98.6862 53.6429 98.663 53.2617C98.6402 52.881 98.6073 51.8457 98.5903 50.9614C98.5682 49.8112 98.511 49.3137 98.3901 49.2149C98.2971 49.1389 98.2211 49.0015 98.2211 48.9101C98.2211 48.6022 97.6215 48.0529 97.1391 47.9187C96.7421 47.8081 96.9846 47.7824 98.5577 47.7671L100.455 47.7489L100.413 48.6168C100.386 49.1696 100.316 49.4857 100.221 49.4868C100.116 49.4882 100.12 49.5182 100.232 49.5889C100.356 49.6667 100.361 49.8522 100.254 50.4218C100.179 50.8251 100.147 51.2747 100.184 51.4214C100.221 51.5681 100.26 52.6229 100.27 53.7653C100.291 56.072 100.408 56.7112 100.893 57.1419L101.221 57.4338L100.793 57.3625C100.487 57.3118 100.266 57.361 100.016 57.5366C99.8247 57.6712 99.5576 57.78 99.423 57.7786C99.2884 57.7768 98.6471 57.7936 97.9971 57.816C97.3479 57.8385 96.8163 57.8235 96.8167 57.7829ZM100.095 57.6997C100.376 57.4963 101.198 57.5016 101.91 57.7115C102.456 57.8721 102.437 57.8764 101.174 57.8667C100.105 57.8585 99.9162 57.8293 100.095 57.6997ZM123.143 57.7939L122.339 57.7311L122.969 57.4478C123.464 57.2254 123.64 57.0631 123.79 56.6923C124.136 55.8404 124.207 54.393 124.094 50.5314L124.054 49.1228L123.361 48.454L122.669 47.7853L124.36 47.7657C126.029 47.7464 126.05 47.7496 125.993 48.0176C125.861 48.6264 125.762 50.6798 125.766 52.6954C125.775 56.4689 125.918 57.2001 126.723 57.5737C126.986 57.6961 127.201 57.8096 127.201 57.8264C127.201 57.8835 123.95 57.8571 123.143 57.7939ZM125.102 57.2172C125.329 57.0352 125.33 57.0245 125.116 57.0912C124.988 57.1316 124.715 57.1644 124.51 57.1644C124.305 57.1644 124.137 57.2212 124.137 57.2904C124.137 57.4895 124.829 57.4367 125.102 57.2172ZM127.996 57.8496C128.039 57.8068 128.375 57.5812 128.741 57.3486C129.261 57.0181 129.493 56.9417 129.804 56.9974C130.165 57.0627 130.18 57.0531 129.97 56.8921C129.747 56.7223 129.748 56.7058 130.002 56.4796C130.146 56.35 130.267 56.1823 130.269 56.1063C130.27 56.0307 130.443 55.7701 130.652 55.5282L131.031 55.0871L130.967 56.0314C130.931 56.5506 130.84 57.1623 130.764 57.3899C130.636 57.7718 130.583 57.8039 130.094 57.7982C129.802 57.7946 129.193 57.8225 128.74 57.8599C128.287 57.8974 127.952 57.8928 127.996 57.8496ZM146.63 57.825L146.078 57.7786L146.588 57.2326C147.217 56.5599 147.628 55.7883 147.628 55.2812C147.628 54.6874 147.797 54.8287 148.052 55.6356C148.311 56.455 149.322 57.7304 149.623 57.6162C149.816 57.5434 150.181 57.648 150.181 57.7761C150.181 57.8639 147.526 57.9006 146.63 57.825ZM155.269 57.6248C154.723 57.1858 153.648 55.8758 153.707 55.7223C153.738 55.6445 153.56 55.5086 153.313 55.4204C153.065 55.3319 152.796 55.136 152.716 54.985C152.635 54.8334 152.46 54.596 152.328 54.4579C152.196 54.3191 151.551 53.5829 150.897 52.821C150.242 52.0595 149.391 51.143 149.004 50.784C148.617 50.4254 148.262 50.0574 148.215 49.9657C147.955 49.4647 147.788 49.2431 147.72 49.3102C147.678 49.3516 147.461 49.1799 147.237 48.9283C147.013 48.6767 146.548 48.3516 146.203 48.2053C145.859 48.0594 145.601 47.917 145.629 47.8891C145.749 47.7707 148.403 47.7328 148.329 47.8506C148.286 47.9184 148.125 47.9784 147.972 47.983C147.703 47.9916 147.702 47.9958 147.947 48.0933C148.088 48.1489 148.3 48.1443 148.42 48.0829C148.589 47.9962 148.767 48.1047 149.218 48.5686C149.537 48.8969 149.798 49.2117 149.798 49.2673C149.798 49.3234 150.162 49.7513 150.608 50.2187C151.053 50.6859 151.523 51.2358 151.653 51.441C151.783 51.6462 152.252 52.1547 152.695 52.5712C153.447 53.2778 153.676 53.6397 153.373 53.6397C153.303 53.6397 153.245 53.6907 153.245 53.7539C153.245 53.8163 153.349 53.8409 153.475 53.8084C153.694 53.7517 153.889 53.9201 155.359 55.4393C155.72 55.813 155.75 55.914 155.767 56.8154C155.776 57.3503 155.744 57.8121 155.696 57.8421C155.647 57.8717 155.455 57.7743 155.269 57.6248ZM54.9887 55.9468C54.9442 55.7708 54.9688 55.3355 55.0441 54.9797C55.28 53.8609 55.1002 49.2913 54.7973 48.7074C54.7372 48.5914 54.3717 48.3491 53.9852 48.1686C53.5987 47.9883 53.2824 47.8285 53.2824 47.8131C53.2824 47.7978 54.3992 47.7853 55.7643 47.7853C57.1293 47.7853 58.1448 47.8224 58.0206 47.8674C57.8965 47.913 57.6189 48.1236 57.4033 48.3363C57.1499 48.5861 56.8264 48.7517 56.4877 48.8048C56.1993 48.8505 55.9633 48.9397 55.9633 49.0033C55.9633 49.0679 56.1681 49.0807 56.4298 49.0325L56.8959 48.9462L56.7967 49.8134C56.7421 50.2905 56.7099 50.8226 56.7251 50.9956C56.7406 51.1687 56.7551 51.537 56.7573 51.8139C56.766 52.9588 56.7356 53.1051 56.4739 53.1725C56.3335 53.2086 56.2188 53.3021 56.2188 53.3802C56.2188 53.4837 56.2886 53.4855 56.4739 53.3873C56.694 53.2717 56.7309 53.2928 56.7399 53.5408L56.7797 54.5836C56.7953 54.9989 56.7627 55.4329 56.7073 55.5471C56.6516 55.6613 56.2604 55.8701 55.8381 56.011L55.0702 56.2665L54.9887 55.9468ZM11.3933 53.8324C11.0043 53.1822 10.4296 52.8842 9.5658 52.8842C9.07255 52.8842 8.86699 52.8399 8.92526 52.7464C8.9752 52.6672 9.23648 52.6315 9.53938 52.6622C10.1774 52.7272 11.0021 52.4684 11.2439 52.128C11.3412 51.9909 11.5385 51.8168 11.6825 51.7408C11.9351 51.6077 11.942 51.6266 11.8728 52.2747C11.8294 52.7178 11.8059 53.1627 11.8023 53.6079C11.803 53.9715 11.7701 54.2688 11.7292 54.2688C11.6879 54.2688 11.537 54.0725 11.3933 53.8324ZM80.0923 53.7653C80.017 53.6268 79.8571 53.5101 79.7369 53.5055C79.5849 53.5001 79.6124 53.4605 79.827 53.3759C80.1629 53.2435 80.342 53.3891 80.3456 53.797C80.3481 54.0864 80.2606 54.0754 80.0923 53.7653ZM129.244 53.7653C129.169 53.6268 129.032 53.5137 128.94 53.5137C128.848 53.5137 128.675 53.4066 128.555 53.2764C128.282 52.9791 127.336 52.71 126.823 52.7842C126.575 52.8199 126.435 52.786 126.435 52.6897C126.435 52.5898 126.778 52.5191 127.446 52.4809C128.587 52.416 128.971 52.2329 129.277 51.6105C129.475 51.2076 129.48 51.2344 129.458 52.6065C129.446 53.3824 129.423 54.0169 129.408 54.0169C129.393 54.0169 129.319 53.9037 129.244 53.7653ZM79.007 53.0258C78.7964 52.917 78.323 52.826 77.9542 52.8246C77.5055 52.8224 77.2844 52.7693 77.284 52.664C77.284 52.5534 77.541 52.5063 78.1453 52.5063C79.2009 52.5063 79.81 52.2365 80.1357 51.6252L80.3709 51.1844L80.3015 52.1123C80.2635 52.6226 80.2153 53.0533 80.1943 53.0697C80.0116 53.2136 79.3196 53.1879 79.007 53.0258ZM32.8556 52.9577C32.8557 52.9048 32.877 52.8541 32.9149 52.8167C32.9528 52.7793 33.0042 52.7583 33.0579 52.7582C33.169 52.7582 33.2374 52.8256 33.2095 52.9077C33.1306 53.1411 32.8556 53.18 32.8556 52.9577ZM34.9795 52.2272C35.0197 52.1629 35.0711 51.9585 35.0935 51.7732C35.1163 51.5877 35.1709 51.2094 35.2158 50.9328C35.2842 50.5071 35.2212 50.2833 34.8105 49.49C34.3961 48.6899 34.2387 48.5087 33.7494 48.266C33.4335 48.1093 33.0488 47.9798 32.8954 47.9776C32.7412 47.9759 32.5838 47.9234 32.5447 47.8616C32.5045 47.7974 33 47.7667 33.6995 47.7903C34.7602 47.8267 34.9914 47.8756 35.4196 48.155C35.6917 48.3324 35.9624 48.478 36.0207 48.478C36.0793 48.478 36.2957 48.6514 36.502 48.8637C36.8092 49.1796 36.8769 49.3569 36.8747 49.8394C36.8722 50.5182 36.2932 51.8771 36.0062 51.8771C35.9056 51.8771 35.7572 51.9556 35.6761 52.052C35.5111 52.2482 34.8644 52.411 34.9795 52.2272ZM36.1915 49.6503C36.3456 49.4633 36.3384 49.4483 36.1325 49.5243C36.004 49.5718 35.8459 49.611 35.7814 49.611C35.717 49.611 35.6642 49.6674 35.6642 49.7366C35.6642 49.9375 35.9997 49.8826 36.1915 49.6503ZM103.926 51.8932C104.087 50.6548 104.115 49.9886 104.004 49.9886C103.938 49.9886 103.753 49.702 103.592 49.3519C103.267 48.6425 102.705 48.2053 101.828 47.9787C101.529 47.9016 101.285 47.8181 101.285 47.7939C101.285 47.7689 101.826 47.7692 102.488 47.7946C103.55 47.8345 103.784 47.8881 104.487 48.2514C105.508 48.7795 105.79 49.1988 105.708 50.0671C105.605 51.1591 104.957 52.0741 104.14 52.2807C103.891 52.3435 103.872 52.3093 103.926 51.8932ZM155.337 50.3676C155.223 49.6652 153.926 48.0005 153.462 47.9612C153.378 47.9541 153.481 47.9088 153.692 47.8606C153.985 47.7931 156.381 47.7792 157.264 47.8399C157.333 47.8445 157.172 48.0244 156.908 48.2396C156.267 48.7606 155.674 49.7966 155.672 50.3975C155.671 51.0235 155.44 51.0028 155.337 50.3676ZM12.1747 49.5047C11.7187 48.9744 11.3572 48.5054 11.3713 48.4619C11.3857 48.4191 11.2699 48.3791 11.1151 48.3741C10.9602 48.3691 10.4886 48.2539 10.067 48.1182L9.30126 47.8713L9.87558 47.8517L10.4503 47.8317L9.77353 47.6522C9.40078 47.5533 8.98823 47.4152 8.85614 47.3456C8.72405 47.276 8.42549 47.2172 8.19243 47.215C7.95974 47.2129 7.65756 47.1276 7.52149 47.0259C7.38506 46.9245 7.17842 46.841 7.06225 46.841C6.94645 46.841 6.75211 46.7329 6.63052 46.6008C6.50928 46.4685 6.2632 46.3239 6.08406 46.2797C5.6574 46.174 4.38608 45.3704 4.38608 45.2062C4.38608 45.1363 4.15121 44.8404 3.86423 44.5489C3.03804 43.7095 2.79594 43.1507 2.79847 42.0901C2.79992 41.5476 2.86325 41.1165 2.95517 41.0259C3.03985 40.9424 3.10933 40.7426 3.10933 40.5823C3.10933 39.9953 3.86713 38.9247 4.65677 38.3958C5.06933 38.1196 5.40733 37.8391 5.40733 37.772C5.40733 37.7056 5.46994 37.6507 5.54593 37.6507C5.62229 37.6507 5.93569 37.4733 6.24185 37.2563C6.54837 37.0394 6.90266 36.8552 7.02896 36.847C7.15526 36.8392 7.63186 36.6821 8.08821 36.4984C9.7225 35.8403 11.8316 35.5801 14.8411 35.6651C16.5354 35.7129 17.2078 35.7768 17.3631 35.9038C17.4796 35.9991 17.6761 36.0605 17.7999 36.0394C17.9236 36.0191 18.2378 36.0898 18.4983 36.1972C18.7582 36.3042 19.056 36.392 19.1599 36.392C19.2634 36.392 19.529 36.4723 19.7505 36.5704C20.9002 37.0808 21.4231 37.2735 21.6583 37.2735C21.8017 37.2735 22.0097 37.3573 22.1208 37.4601C22.2323 37.5629 22.668 37.923 23.0893 38.2602C24.117 39.0838 24.2256 39.2237 24.5408 40.1377C24.8176 40.9392 24.9175 42.4823 24.7015 42.6136C24.6403 42.6511 24.556 42.8502 24.5144 43.0561C24.3533 43.8494 23.6603 44.8197 22.8823 45.3408C22.4697 45.6173 22.1317 45.8978 22.1317 45.9646C22.1317 46.0313 22.0257 46.0859 21.8965 46.0859C21.7665 46.0859 21.5519 46.2044 21.4188 46.3493C21.1264 46.6679 20.788 46.8553 20.4243 46.9003C20.2748 46.9185 19.7794 47.0765 19.3231 47.2511C17.8802 47.8028 15.4599 48.1671 13.8477 48.0751C12.9256 48.0222 12.8112 48.0394 12.8898 48.215C12.9951 48.4512 13.1141 49.9875 13.049 50.2712C13.0186 50.4018 12.724 50.1431 12.1747 49.5047ZM16.4616 46.4456C16.4989 46.386 16.7157 46.3375 16.9429 46.3375C17.1709 46.3375 17.4116 46.284 17.4785 46.2183C17.5451 46.1526 17.9443 46.0106 18.3655 45.9032C19.5851 45.5913 21.7488 43.974 21.7488 43.3737C21.7488 43.2674 21.8628 42.9598 22.0021 42.6896C22.2754 42.1618 22.2609 41.8528 21.9113 40.7354C21.5664 39.6348 20.7471 38.7691 19.3231 38.0015C18.0767 37.3295 16.019 36.9405 14.4079 37.0725C13.9164 37.1125 12.9683 37.1546 12.3017 37.1661C11.6344 37.1775 11.0173 37.241 10.9305 37.307C10.8436 37.373 10.6963 37.3984 10.6037 37.3634C10.5107 37.3281 10.2082 37.4048 9.93167 37.534C9.65519 37.6628 9.23286 37.8066 8.99329 37.8534C8.06034 38.0354 6.19987 39.4603 5.91977 40.208C5.83653 40.4289 5.70806 40.7208 5.63387 40.8567C5.22059 41.6133 5.59479 43.4162 6.31821 44.152C6.54692 44.3847 6.83499 44.5749 6.95803 44.5749C7.08107 44.5749 7.228 44.6534 7.28409 44.7487C7.48638 45.092 8.37085 45.5702 9.08413 45.7212C9.48438 45.8061 9.96243 45.9489 10.1466 46.0384C10.3305 46.128 10.8632 46.2401 11.3311 46.2872C11.7983 46.3346 12.2062 46.4131 12.2369 46.4624C12.3173 46.5909 16.3805 46.5748 16.4616 46.4456ZM21.6211 38.2174C21.6211 38.1139 21.5635 38.0286 21.4933 38.0286C21.4231 38.0286 21.3656 38.1135 21.3656 38.2177C21.3656 38.3212 21.4235 38.4062 21.4933 38.4062C21.5635 38.4062 21.6211 38.3212 21.6211 38.2174ZM80.7679 49.6806C80.4234 49.2502 80.0109 48.9062 79.6189 48.7224C79.2824 48.5654 78.8637 48.3406 78.6882 48.2232C78.4673 48.0836 78.2319 47.9678 77.9861 47.8777C77.6915 47.776 78.01 47.7539 79.3631 47.781C80.3315 47.8003 81.1573 47.8495 81.1986 47.8898C81.2395 47.9305 81.2891 48.3484 81.3086 48.8188C81.3281 49.2891 81.3846 49.8298 81.4353 50.02C81.5706 50.5346 81.3687 50.4318 80.7679 49.6806ZM130.201 50.0635C129.993 49.8346 129.788 49.6022 129.588 49.3666C129.378 49.1196 128.725 48.6931 128.008 48.3341L126.786 47.7225H127.361C127.677 47.7225 127.998 47.649 128.073 47.559C128.341 47.2414 128.521 45.8711 128.574 43.7566L128.632 41.4277C128.635 41.3239 128.636 40.5306 128.634 39.6652C128.629 37.6186 128.629 37.2281 128.634 35.5737C128.636 34.8122 128.633 33.2256 128.626 32.0486C128.62 30.9365 128.62 29.8244 128.626 28.7123C128.632 28.0546 128.634 27.3748 128.631 27.2017C128.627 27.0286 128.629 26.4337 128.634 25.8798C128.639 25.326 128.635 24.3061 128.623 23.6137C128.607 22.6042 128.604 21.2156 128.617 20.0886C128.617 20.0194 128.591 19.5662 128.558 19.0816C128.525 18.5969 128.544 17.991 128.6 17.7351C128.724 17.1748 128.543 16.106 128.302 15.9729C128.206 15.9204 128.061 15.7203 127.978 15.5279C127.769 15.0426 127.257 14.6971 126.884 14.7892C126.718 14.8306 126.406 15.0104 126.19 15.1899C125.974 15.3691 125.797 15.4804 125.797 15.4373C125.797 15.3944 125.668 15.429 125.509 15.5147C125.141 15.7142 125.006 15.7467 124.044 15.8659C121.993 16.1192 121.238 15.757 118.839 13.3678C118.067 12.5988 117.251 11.753 117.026 11.4886C116.653 11.0496 116.371 10.8672 115.456 10.4726C114.764 10.1746 113.137 10.0732 112.519 10.2898C112.274 10.3762 111.831 10.4494 111.536 10.4522C111.241 10.4558 110.868 10.5086 110.706 10.5707C110.545 10.6328 110.154 10.752 109.839 10.8355C109.523 10.919 109.127 11.0403 108.96 11.1053C108.793 11.1695 108.627 11.1934 108.591 11.1581C108.461 11.0296 108.855 10.7095 109.143 10.7095C109.305 10.7095 109.523 10.6246 109.629 10.5207C109.734 10.4169 109.896 10.3316 109.989 10.3316C110.082 10.3312 110.33 10.2281 110.541 10.1028C110.993 9.83341 112.372 9.37056 113.094 9.24565C113.977 9.09256 115.25 9.12253 115.44 9.30061C115.537 9.39089 115.694 9.43622 115.788 9.40053C115.882 9.36484 115.992 9.38983 116.034 9.4562C116.075 9.52222 116.218 9.57647 116.35 9.57647C116.769 9.57647 117.461 10.0714 117.985 10.7473C118.265 11.1078 118.687 11.6006 118.924 11.8433C119.16 12.0859 119.485 12.4938 119.645 12.7497C119.806 13.0052 120.049 13.2493 120.186 13.2921C120.323 13.335 120.435 13.4192 120.435 13.4788C120.435 13.6215 121.401 14.2582 121.967 14.4876C122.434 14.6775 124.418 14.7317 125.054 14.5719C125.242 14.5244 125.435 14.3663 125.482 14.2204C125.551 14.0069 125.401 13.7928 124.723 13.1341C124.258 12.6823 123.843 12.1648 123.799 11.9835C123.756 11.8022 123.551 11.3444 123.344 10.9657C123.059 10.4458 122.966 10.1078 122.962 9.58111C122.96 9.19783 122.905 8.78459 122.84 8.66325C122.716 8.42808 123.006 6.62198 123.234 6.21266C123.303 6.08919 123.459 5.76194 123.581 5.48501C123.734 5.15482 123.918 4.83921 124.13 4.54218C124.656 3.8338 126.04 2.50412 126.168 2.58263C126.234 2.62224 126.371 2.57192 126.473 2.47093C126.576 2.36993 126.825 2.24825 127.026 2.20114C127.228 2.15368 127.489 2.0327 127.606 1.93242C127.723 1.83214 128.011 1.73436 128.244 1.71544C128.862 1.66548 128.861 1.6662 128.861 1.41425C128.861 1.28685 129.071 0.916782 129.328 0.591678L129.795 0L130.158 0.342587C130.357 0.531012 130.521 0.747982 130.521 0.825065C130.521 1.08094 131.482 1.89709 131.783 1.89709C132.061 1.89709 133.193 2.45415 134.255 3.11364C134.658 3.3638 134.734 3.47979 134.734 3.847C134.734 4.31771 134.469 4.56573 133.805 4.71776C133.486 4.79091 132.68 4.49721 131.287 3.80025C131.181 3.74743 130.923 3.70853 130.712 3.71353C130.354 3.72174 130.329 3.75386 130.329 4.21243C130.329 4.52469 130.399 4.73416 130.521 4.79055C130.626 4.83908 130.827 4.94328 130.967 5.02251C131.227 5.16164 131.491 5.29408 131.758 5.4197C132.052 5.55924 132.395 5.84366 132.52 6.05136C132.644 6.25905 132.786 6.42928 132.834 6.42928C132.883 6.42928 133.057 6.69835 133.219 7.02702C133.581 7.75788 133.607 9.17714 133.27 9.81985C132.844 10.6317 131.703 11.723 131.205 11.7951C130.691 11.8697 130.327 12.1798 130.289 12.5756C130.223 13.2458 130.404 13.3571 131.244 13.1647C131.637 13.0748 131.993 12.9524 132.037 12.8928C132.081 12.8332 132.435 12.628 132.825 12.4371C133.454 12.1291 133.583 12.1063 133.974 12.234C134.84 12.5177 134.944 12.9699 134.301 13.6611C133.872 14.1233 133.443 14.4006 132.538 14.8024C132.056 15.0165 131.414 15.716 131.414 16.0264C131.414 16.121 131.342 16.2691 131.255 16.3558C131.13 16.4793 131.088 19.2236 131.065 29.0649C131.049 35.9684 131.039 41.7586 131.043 41.9313C131.118 44.8833 131.265 46.6347 131.463 46.9452C131.521 47.0366 131.58 47.2771 131.595 47.4798C131.622 47.8688 131.542 47.9041 130.746 47.8524L130.398 47.8299L130.443 48.8148C130.468 49.3566 130.531 49.9272 130.583 50.0828C130.701 50.435 130.538 50.4268 130.201 50.0635ZM129.116 44.7009C129.116 44.6317 129.03 44.5749 128.925 44.5749C128.82 44.5749 128.733 44.632 128.733 44.7009C128.733 44.7701 128.82 44.8269 128.925 44.8269C129.03 44.8269 129.116 44.7701 129.116 44.7009ZM130.84 38.1546C130.883 38.0853 130.826 38.0286 130.712 38.0286C130.599 38.0286 130.541 38.0853 130.585 38.1546C130.628 38.2238 130.685 38.2805 130.712 38.2805C130.739 38.2805 130.796 38.2234 130.84 38.1546ZM129.448 36.3706C129.687 36.1012 129.687 36.0987 129.436 36.1961C129.295 36.2503 129.08 36.3231 128.958 36.3578C128.836 36.3924 128.768 36.4709 128.806 36.5323C128.926 36.7232 129.194 36.6554 129.448 36.3706ZM130.201 31.7339C130.329 31.5954 130.37 31.4823 130.293 31.4823C130.216 31.4823 130.117 31.5386 130.074 31.6079C130.031 31.6771 129.851 31.7339 129.676 31.7339C129.495 31.7339 129.391 31.7888 129.436 31.8598C129.565 32.0668 129.955 32.0026 130.201 31.7339ZM130.523 26.0686C130.741 26.0686 130.89 26.0229 130.855 25.9673C130.737 25.7785 129.9 25.9666 129.667 26.2339L129.435 26.4994L129.782 26.2842C129.973 26.1657 130.306 26.0686 130.523 26.0686ZM129.372 20.3852C129.372 20.3199 129.259 20.3281 129.116 20.4034C128.976 20.4776 128.863 20.6639 128.865 20.8174L128.87 21.0957L129.12 20.7988C129.259 20.6354 129.372 20.4494 129.372 20.3852ZM130.904 19.7739C130.904 19.7405 130.89 19.7085 130.866 19.6849C130.842 19.6613 130.81 19.648 130.776 19.6479C130.742 19.648 130.71 19.6613 130.686 19.6849C130.662 19.7085 130.648 19.7405 130.648 19.7739C130.648 19.8431 130.706 19.8999 130.776 19.8999C130.81 19.8998 130.842 19.8865 130.866 19.8629C130.89 19.8392 130.904 19.8073 130.904 19.7739ZM128.515 14.9901C128.441 14.7121 128.372 14.6886 128.111 14.852C127.886 14.9919 128.037 15.2417 128.346 15.2417C128.519 15.2417 128.564 15.1746 128.515 14.9901ZM130.975 14.9234C131.215 14.7367 131.213 14.7321 130.914 14.766C130.743 14.7853 130.581 14.872 130.552 14.9587C130.48 15.1728 130.675 15.1568 130.975 14.9234ZM126.244 14.6122C126.287 14.543 126.611 14.4866 126.964 14.4866C127.422 14.4866 127.59 14.4412 127.55 14.3292C127.492 14.1622 127.201 14.154 126.371 14.2949C125.634 14.4205 125.516 14.4694 125.605 14.6115C125.707 14.7749 126.141 14.7756 126.244 14.6122ZM132.931 14.1115L133.138 13.7993L132.723 14.0883C132.265 14.4077 132.2 14.5262 132.516 14.4641C132.631 14.442 132.817 14.2832 132.931 14.1115ZM130.468 13.8289C130.637 13.7529 130.776 13.6444 130.776 13.588C130.776 13.427 129.986 13.6233 129.563 13.8895L129.18 14.1304L129.67 14.0487C129.94 14.0041 130.299 13.9049 130.468 13.8289ZM129.348 12.7472C129.392 12.3036 129.201 11.9685 128.906 11.9685C128.63 11.9685 127.074 10.9593 127.074 10.7809C127.074 10.6938 126.959 10.5204 126.818 10.3948C126.678 10.2699 126.563 10.0939 126.563 10.0047C126.563 9.91548 126.442 9.64106 126.295 9.39482C126.06 9.00227 125.965 8.94696 125.525 8.94696C124.903 8.94696 124.831 9.10612 125.099 9.88445C125.437 10.8665 126.024 11.6777 126.838 12.2883C127.695 12.9306 128.354 13.2136 128.925 13.184C129.26 13.1669 129.313 13.1126 129.348 12.7472ZM134.095 12.7105C134.095 12.4417 133.841 12.3957 133.61 12.623C133.385 12.8453 133.42 12.9107 133.776 12.931C134.011 12.9442 134.095 12.8857 134.095 12.7105ZM118.137 12.2205C118.137 12.1512 118.076 12.0945 118.002 12.0945C117.927 12.0945 117.902 12.1512 117.946 12.2205C117.989 12.2897 118.05 12.3461 118.081 12.3461C118.112 12.3461 118.137 12.2897 118.137 12.2205ZM132.053 10.9625C132.053 10.9272 131.866 10.8936 131.638 10.8876C131.41 10.8819 131.028 10.8305 130.791 10.7741C130.455 10.6942 130.371 10.7088 130.416 10.8391C130.498 11.0821 131.549 11.3173 131.829 11.1556C131.952 11.0846 132.053 10.9975 132.053 10.9625ZM124.262 9.87766C124.545 9.76632 124.776 9.61857 124.776 9.54934C124.776 9.47939 124.677 9.4637 124.552 9.51366C124.429 9.56291 124.085 9.68746 123.786 9.79059C123.488 9.89372 123.244 10.0011 123.244 10.029C123.244 10.1467 123.785 10.0661 124.262 9.87766ZM129.126 9.59931C128.955 9.57397 128.691 9.47262 128.539 9.37448C128.169 9.13538 127.125 9.09577 126.916 9.31274C126.782 9.45263 126.856 9.47084 127.35 9.41981C127.812 9.37199 128.057 9.42087 128.436 9.63642C128.821 9.85554 128.979 9.88623 129.18 9.77988C129.425 9.65034 129.423 9.64356 129.126 9.59931ZM126.304 7.45098C126.377 7.18226 126.523 6.89177 126.628 6.80613C126.733 6.72048 126.818 6.59665 126.818 6.53134C126.818 6.30117 127.503 5.53069 127.877 5.34012C128.085 5.23413 128.536 5.06534 128.877 4.96506C129.463 4.79341 129.5 4.75808 129.5 4.35411C129.5 3.88126 129.046 3.42626 128.808 3.66072C128.739 3.72924 128.521 3.78562 128.325 3.78562C128.128 3.78562 127.967 3.84094 127.967 3.90838C127.967 3.97619 127.723 4.15283 127.425 4.30129C127.126 4.44974 126.767 4.62996 126.626 4.70205C126.377 4.82909 125.67 5.71055 125.669 5.89576C125.669 5.9468 125.525 6.26726 125.349 6.60807C125.174 6.94852 125.031 7.38745 125.031 7.58373C125.031 7.92168 125.06 7.93989 125.601 7.93989C126.154 7.93989 126.174 7.92633 126.304 7.45098ZM130.818 7.5584C130.9 7.55626 130.864 7.49487 130.736 7.42207C130.465 7.26648 130.083 7.37318 130.206 7.56981C130.253 7.6444 130.376 7.67331 130.48 7.63405C130.584 7.59444 130.736 7.56054 130.818 7.5584ZM131.67 7.24757C131.799 7.09412 131.793 7.05843 131.637 7.05843C131.532 7.05843 131.374 7.14372 131.287 7.24757C131.157 7.40102 131.164 7.43635 131.319 7.43635C131.425 7.43635 131.582 7.35177 131.67 7.24757ZM126.946 6.91782C126.946 6.84859 126.888 6.82718 126.818 6.87C126.748 6.91282 126.691 7.00418 126.691 7.07341C126.691 7.14265 126.748 7.16442 126.818 7.12159C126.889 7.07877 126.946 6.98669 126.946 6.91782ZM127.393 6.68086C127.436 6.61163 127.379 6.55525 127.265 6.55525C127.152 6.55525 127.094 6.61163 127.138 6.68086C127.181 6.75009 127.238 6.80683 127.265 6.80683C127.292 6.80683 127.349 6.75009 127.393 6.68086ZM129.372 6.42928C129.537 6.324 129.533 6.30687 129.347 6.30509C129.229 6.30402 129.096 6.36004 129.052 6.42928C128.952 6.58844 129.121 6.58844 129.372 6.42928ZM125.222 3.91124C125.266 3.84201 125.241 3.78526 125.166 3.78526C125.092 3.78526 125.031 3.84236 125.031 3.91124C125.031 3.98047 125.056 4.03721 125.087 4.03721C125.118 4.03721 125.179 3.98047 125.222 3.91124ZM132.627 2.40063C132.584 2.3314 132.465 2.27465 132.364 2.27465C132.263 2.27465 132.18 2.3314 132.18 2.40063C132.18 2.46986 132.298 2.5266 132.443 2.5266C132.588 2.5266 132.67 2.4695 132.627 2.40063ZM38.695 47.9584C38.5836 47.897 38.129 47.8106 37.6846 47.7664C37.2406 47.7225 36.6022 47.5812 36.266 47.4527C35.9298 47.3242 35.488 47.2189 35.2842 47.2189C35.0801 47.2189 34.8807 47.1665 34.8405 47.1026C34.8007 47.0387 34.6031 46.9509 34.4019 46.9074C34.2007 46.8635 33.8457 46.6894 33.6126 46.5198C33.3796 46.3503 33.1132 46.2119 33.021 46.2119C32.7883 46.2119 31.5842 45.4221 31.5814 45.2676C31.5799 45.1984 31.3407 44.915 31.0494 44.6381C30.2872 43.9129 29.9221 43.0707 29.9203 42.033C29.9199 41.5698 29.9702 41.1597 30.0325 41.1219C30.0947 41.0837 30.1808 40.8671 30.2243 40.6401C30.3954 39.7394 31.0378 38.8458 31.898 38.3098C32.1792 38.1349 32.455 37.9151 32.511 37.8216C32.5671 37.7278 32.6739 37.651 32.7477 37.651C32.8219 37.651 33.1111 37.4726 33.3897 37.2549C33.6687 37.0372 34.0219 36.8445 34.1743 36.8278C34.3266 36.8106 34.825 36.655 35.2817 36.4823C36.9826 35.8385 39.0612 35.5837 41.9658 35.6622C43.7351 35.7104 44.2659 35.7646 44.4411 35.9156C44.5641 36.0209 44.7378 36.0815 44.8265 36.0498C45.095 35.9538 46.3993 36.3695 48.1313 37.1025C48.3524 37.1967 48.6466 37.2731 48.7852 37.2731C48.9238 37.2731 49.2882 37.4997 49.5959 37.7767C49.9031 38.0539 50.1922 38.2805 50.2386 38.2805C50.404 38.2805 51.495 39.4075 51.495 39.5781C51.495 39.6741 51.5957 39.9453 51.7183 40.1812C52.0144 40.7483 52.0078 42.3374 51.7075 42.8755C51.5917 43.0832 51.4961 43.3737 51.4958 43.5211C51.4954 43.6685 51.4111 43.8576 51.3083 43.9415C51.2059 44.0257 51.085 44.2084 51.0405 44.3476C50.9486 44.6331 50.2284 45.3211 50.0164 45.3268C49.9404 45.329 49.7102 45.4989 49.5054 45.7048C49.3005 45.9103 49.0957 46.0805 49.0501 46.0823C49.0045 46.0841 48.6687 46.284 48.3035 46.5263C47.9388 46.7686 47.5946 46.9392 47.5392 46.9053C47.4839 46.8717 47.0731 47.0045 46.6262 47.2C45.872 47.5308 45.4244 47.6315 43.1933 47.9708C42.1872 48.1243 38.9791 48.115 38.695 47.9584ZM43.6435 46.4642C43.7137 46.4121 43.9439 46.3386 44.1541 46.3011C46.3218 45.9142 48.926 44.1731 48.9455 43.0975C48.9481 42.9755 49.0342 42.7656 49.1373 42.6311C49.2405 42.4969 49.3248 42.2053 49.3248 41.9834C49.3248 41.3813 48.8529 39.991 48.5601 39.7294C48.419 39.6034 48.3032 39.4361 48.3032 39.3579C48.3032 39.2052 47.1625 38.3205 46.7992 38.1913C46.6783 38.1485 46.4362 38.0165 46.2607 37.8987C45.4301 37.3391 43.2118 36.9901 41.1106 37.0883C38.0838 37.2296 37.8674 37.2588 36.494 37.7106C34.8228 38.2606 33.3058 39.404 32.9753 40.3621C32.8813 40.6366 32.7579 40.9153 32.7021 40.9809C32.5299 41.1836 32.5896 42.3727 32.8049 43.0308C33.0101 43.6571 33.7306 44.5749 34.0172 44.5749C34.1012 44.5749 34.4236 44.7801 34.7338 45.0306C35.1376 45.3572 35.5755 45.5563 36.279 45.7337C36.8183 45.8703 37.318 46.0292 37.389 46.087C37.4599 46.1451 37.8909 46.2322 38.3465 46.2811C38.8025 46.33 39.2523 46.4103 39.3468 46.4595C39.5769 46.5805 43.4817 46.5844 43.6435 46.4642ZM48.6354 38.0789C48.5898 37.9622 48.5239 37.8951 48.4888 37.9297C48.4537 37.9644 48.4621 38.0882 48.5076 38.2049C48.5529 38.3216 48.6191 38.389 48.6542 38.3544C48.6893 38.3198 48.6806 38.1956 48.6354 38.0789ZM138.819 46.6897C138.464 46.619 138.129 46.4485 137.943 46.2447C137.687 45.9638 137.651 45.8182 137.703 45.2762C137.736 44.9254 137.837 44.4682 137.926 44.2605C138.106 43.8419 138.213 42.4619 138.081 42.2535C138.035 42.18 137.985 41.7946 137.97 41.397C137.956 40.9991 137.849 40.0934 137.735 39.3843C137.437 37.5329 137.087 37.0504 135.521 36.3313L134.967 36.0773L135.295 35.7746C135.659 35.4378 136.705 35.2165 137.059 35.401C137.179 35.4634 137.501 35.5359 137.772 35.5616C138.044 35.5876 138.445 35.7 138.664 35.8114C138.883 35.9231 139.136 36.0148 139.228 36.0148C139.526 36.0159 140.461 36.7085 140.771 37.1589C141.055 37.5718 141.067 37.6625 140.966 38.6007C140.907 39.1517 140.803 39.7722 140.736 39.9799C140.668 40.1876 140.59 40.714 140.562 41.1497C140.534 41.5851 140.479 41.9734 140.439 42.0123C140.399 42.0515 140.415 42.2078 140.474 42.3602C140.534 42.5165 140.529 42.7278 140.463 42.8456C140.388 42.9762 140.397 43.2588 140.486 43.6071L140.627 44.161L142.691 44.1121C143.826 44.085 145.33 44.0353 146.032 44.0018C149.178 43.8516 152.844 43.7734 156.513 43.778L160.483 43.783L161.19 44.1128C161.579 44.2944 161.931 44.5296 161.972 44.6359C162.161 45.1213 161.371 45.9696 160.586 46.1248C158.837 46.4717 158.452 46.4852 154.082 46.3589C149.393 46.2229 142.801 46.3368 141.755 46.5716C140.906 46.7625 139.473 46.8203 138.819 46.6897ZM152.341 45.8793C152.37 45.8543 152.362 45.8022 152.322 45.7629C152.218 45.6605 151.33 45.8425 151.33 45.9663C151.33 46.0609 152.217 45.9849 152.341 45.8793ZM139.904 45.5824C139.947 45.5131 139.926 45.4564 139.855 45.4564C139.785 45.4564 139.692 45.5131 139.649 45.5824C139.605 45.6516 139.627 45.7083 139.698 45.7083C139.768 45.7083 139.861 45.6512 139.904 45.5824ZM141.5 45.4011C141.5 45.3704 141.442 45.3104 141.372 45.2676C141.302 45.2248 141.245 45.2498 141.245 45.3229C141.245 45.3964 141.302 45.4564 141.372 45.4564C141.442 45.4564 141.5 45.4314 141.5 45.4011ZM155.416 45.2048C155.416 45.1356 155.132 45.0788 154.785 45.0788C154.438 45.0788 154.119 45.1356 154.075 45.2048C154.026 45.2829 154.265 45.3304 154.706 45.3304C155.096 45.3304 155.416 45.274 155.416 45.2048ZM140.351 43.8694C140.351 43.6688 140.237 43.6496 139.984 43.8077C139.887 43.8683 139.846 43.9779 139.892 44.0521C140.003 44.2306 140.351 44.0921 140.351 43.8694ZM159.82 44.0717C159.864 44.0025 159.777 43.9458 159.628 43.9458C159.48 43.9458 159.394 44.0025 159.437 44.0717C159.48 44.141 159.567 44.1974 159.629 44.1974C159.69 44.1974 159.777 44.141 159.82 44.0717ZM140.223 41.8056C140.223 41.7364 140.108 41.6797 139.968 41.6797C139.828 41.6797 139.712 41.7364 139.712 41.8056C139.712 41.8749 139.828 41.9313 139.968 41.9313C140.108 41.9313 140.223 41.8749 140.223 41.8056ZM139.777 40.294C140.069 39.9764 139.974 39.8729 139.54 40.036C139.355 40.1052 139.111 40.1266 138.997 40.0834C138.82 40.0163 138.811 40.0445 138.936 40.2758C139.121 40.6152 139.475 40.623 139.777 40.294ZM138.307 38.1481C138.132 38.1042 137.932 38.0996 137.863 38.1374C137.793 38.1756 137.88 38.2427 138.054 38.2866C138.229 38.3309 138.429 38.3355 138.498 38.2973C138.568 38.2595 138.482 38.1924 138.307 38.1481ZM140.798 37.777C140.754 37.7078 140.607 37.651 140.471 37.651C140.335 37.651 140.223 37.7078 140.223 37.777C140.223 37.8462 140.37 37.9026 140.55 37.9026C140.735 37.9026 140.843 37.8484 140.798 37.777ZM68.3428 46.3964C68.1014 46.143 68.0866 46.0138 68.1528 44.7501C68.3186 41.5837 68.328 41.831 68.037 41.7796C67.7363 41.7261 66.8967 41.7396 63.3679 41.8535C59.0658 41.9926 57.9161 42.0676 57.6584 42.2246C57.586 42.2685 57.0019 42.3156 56.3607 42.3288C54.8878 42.3591 54.8045 42.2867 54.7636 40.9299L54.7506 40.4952L55.4527 40.5431C56.5839 40.6198 64.0233 40.6073 66.1603 40.5249C67.2676 40.482 68.1575 40.3935 68.2028 40.3211C68.2469 40.2504 68.2668 37.1992 68.2469 33.5399C68.2274 29.881 68.2143 26.7024 68.219 26.4772C68.2238 26.2517 68.172 25.9651 68.1047 25.8409C67.8713 25.4109 68.1036 25.3003 68.9294 25.4477C69.3463 25.5223 69.7871 25.6357 69.9091 25.7C70.031 25.7642 70.2257 25.817 70.3419 25.817C70.9654 25.817 71.0754 26.8237 70.5265 27.505L70.1526 27.9689L70.2066 36.5551C70.2362 41.2779 70.2641 45.2444 70.2684 45.3697C70.2858 45.85 69.9876 46.4635 69.7093 46.5198C68.865 46.6904 68.6005 46.6665 68.3428 46.3964ZM57.5976 41.9063C57.8415 41.6654 57.7749 41.5366 57.4952 41.7089C57.2375 41.8677 57.1539 42.0572 57.3421 42.0572C57.3982 42.0572 57.5133 41.9894 57.5976 41.9063ZM61.3251 41.5576C61.3251 41.4905 61.2393 41.4684 61.134 41.508C61.0287 41.548 60.9422 41.603 60.9422 41.6301C60.9422 41.6572 61.0287 41.6797 61.134 41.6797C61.2389 41.6797 61.3251 41.6247 61.3251 41.5576ZM69.7513 39.8943C69.7513 39.6748 69.4958 39.6823 69.3749 39.905C69.1802 40.2633 69.2085 40.3168 69.4962 40.1398C69.6366 40.0531 69.7513 39.9428 69.7513 39.8943ZM70.0068 38.7691C70.0068 38.6999 69.9489 38.6784 69.879 38.7209C69.8088 38.7637 69.7513 38.8554 69.7513 38.9247C69.7513 38.9939 69.8088 39.0157 69.879 38.9729C69.9492 38.93 70.0068 38.838 70.0068 38.7691ZM69.3684 37.651C69.1173 37.4912 68.73 37.4912 68.73 37.651C68.73 37.7203 68.9168 37.7759 69.1448 37.7749C69.4596 37.7734 69.5139 37.7435 69.3684 37.651ZM69.6261 32.9269C69.7151 32.8212 69.752 32.6999 69.7086 32.6571C69.6159 32.5657 69.2407 32.8473 69.2407 33.0082C69.2407 33.1817 69.4487 33.1378 69.6261 32.9269ZM70.0068 31.7192C70.0068 31.65 69.9489 31.6282 69.879 31.671C69.8088 31.7139 69.7513 31.8056 69.7513 31.8745C69.7513 31.9441 69.8088 31.9655 69.879 31.9226C69.9492 31.8798 70.0068 31.7885 70.0068 31.7192ZM69.4321 30.6008C69.3887 30.5316 69.2132 30.4752 69.0416 30.4752C68.8701 30.4752 68.73 30.5316 68.73 30.6008C68.73 30.67 68.9056 30.7268 69.1205 30.7268C69.3485 30.7268 69.4781 30.6743 69.4321 30.6008ZM69.3044 28.0831C69.3478 28.0139 69.3225 27.9571 69.2483 27.9571C69.1737 27.9571 69.1129 28.0139 69.1129 28.0831C69.1129 28.1524 69.1383 28.2091 69.1694 28.2091C69.2001 28.2091 69.2609 28.152 69.3044 28.0831ZM70.3227 27.3755C70.4363 27.2634 70.5123 27.1574 70.4914 27.1399C70.4707 27.1221 70.115 27.1364 69.7006 27.1721C68.9928 27.2324 68.966 27.2459 69.2537 27.4033C69.6699 27.631 70.0745 27.6203 70.3227 27.3755ZM68.6023 26.8241C68.6023 26.7549 68.577 26.6981 68.5462 26.6981C68.5151 26.6981 68.4543 26.7549 68.4109 26.8241C68.3674 26.8933 68.3928 26.9501 68.4669 26.9501C68.5415 26.9501 68.6023 26.8933 68.6023 26.8241ZM77.8261 45.0938C77.7031 44.9636 77.5019 44.7227 77.3781 44.5585C77.2012 44.326 77.0213 44.0957 76.8385 43.8676C76.6648 43.6517 76.4401 43.1603 76.3384 42.7753C76.2367 42.3898 76.0996 41.9723 76.0333 41.846C75.8328 41.4623 75.7286 40.3236 75.8857 40.228C76.0471 40.1298 76.6457 40.6383 76.6457 40.8739C76.6457 41.1697 77.2826 41.7778 77.8117 41.9866C78.4048 42.2203 80.9818 42.3506 81.4642 42.1707C81.622 42.1118 82.2151 42.1083 82.7826 42.1622C83.35 42.2164 84.1686 42.2125 84.6021 42.1536C85.0357 42.0951 86.9704 42.0205 88.9014 41.988C90.8324 41.9552 93.0729 41.8952 93.8803 41.8542C94.6876 41.8135 96.8423 41.7621 98.6681 41.7403C100.493 41.7189 102.045 41.6897 102.115 41.6754C102.185 41.6611 102.271 41.6611 102.307 41.6754C102.341 41.6897 102.785 41.7182 103.292 41.7396C104.01 41.7685 104.34 41.8499 104.785 42.1072C105.481 42.5094 105.539 42.594 105.436 43.0558C105.336 43.5075 104.666 43.9525 103.711 44.2024C103.142 44.3515 102.137 44.3787 98.4126 44.3451C93.8727 44.3044 87.4057 44.4668 84.3054 44.6991C83.4275 44.7651 82.0516 44.8504 81.2474 44.889C80.443 44.9275 79.4199 45.0424 78.9733 45.1448C77.981 45.3718 78.0932 45.3768 77.8261 45.0938ZM79.7094 43.9458C79.7093 43.9124 79.6958 43.8804 79.6719 43.8568C79.6479 43.8332 79.6155 43.8199 79.5817 43.8198C79.5478 43.8199 79.5154 43.8332 79.4914 43.8568C79.4675 43.8804 79.454 43.9124 79.4539 43.9458C79.4539 44.015 79.5115 44.0717 79.5817 44.0717C79.6155 44.0716 79.6479 44.0584 79.6719 44.0347C79.6958 44.0111 79.7093 43.9792 79.7094 43.9458ZM95.5717 43.9476C95.6948 43.9465 95.7954 43.8848 95.7954 43.8098C95.7954 43.6474 95.0307 43.7802 94.8378 43.9761C94.751 44.0646 94.8114 44.081 95.0296 44.0275C95.2048 43.9847 95.4491 43.9483 95.5717 43.9476ZM83.6106 43.5015C83.8505 43.3148 83.8487 43.3098 83.5491 43.3441C83.379 43.3634 83.2165 43.4501 83.1875 43.5368C83.1162 43.7509 83.3102 43.7349 83.6106 43.5015ZM84.9438 43.3866C84.9438 43.3562 84.8859 43.2963 84.816 43.2535C84.7458 43.2106 84.6883 43.2356 84.6883 43.3088C84.6883 43.3823 84.7458 43.4422 84.816 43.4422C84.8862 43.4422 84.9438 43.4173 84.9438 43.3866ZM98.9232 43.1903C98.8798 43.1211 98.5924 43.0647 98.2848 43.0647C97.9772 43.0647 97.6899 43.1211 97.6465 43.1903C97.5976 43.2688 97.839 43.3163 98.2848 43.3163C98.7303 43.3163 98.9724 43.2684 98.9232 43.1903ZM103.387 41.9234C103.35 41.8649 103.235 41.8485 103.133 41.887C103.03 41.9263 102.976 42.0062 103.013 42.0651C103.05 42.124 103.165 42.1404 103.267 42.1015C103.37 42.0626 103.424 41.9823 103.387 41.9234ZM107.93 44.4557C107.65 44.1738 107.366 43.843 107.3 43.7206C107.089 43.3323 106.901 41.6194 107.026 41.2261C107.09 41.0255 107.242 40.4931 107.364 40.0431C107.485 39.5931 107.613 39.172 107.648 39.1074C107.737 38.944 107.781 37.9993 107.841 34.9442C107.902 31.8191 107.786 31.0101 107.117 29.9089C106.866 29.4931 106.597 28.8768 106.521 28.5392C106.445 28.2016 106.336 27.8333 106.278 27.7209C106.22 27.6085 106.138 27.2606 106.097 26.9472C105.953 25.8595 106.406 25.8163 106.886 26.8723C107.155 27.4668 107.467 27.7673 107.924 27.8711C108.244 27.949 108.563 28.0326 108.881 28.122C109.334 28.2487 110.037 28.288 111.307 28.2584L115.52 28.1595C118.117 28.0981 119.391 27.9903 119.621 27.8119C119.7 27.7505 119.803 27.4636 119.85 27.1742C119.897 26.8848 119.993 26.58 120.063 26.4969C120.279 26.2392 120.442 24.2047 120.403 22.2288L120.366 20.3409L118.581 20.3213C117.6 20.3106 116.423 20.2949 115.967 20.2863C115.51 20.2781 114.534 20.2988 113.796 20.3327C109.745 20.519 108.948 20.5886 108.55 20.7913C108.336 20.9005 107.796 20.6164 107.796 20.3952C107.796 20.3292 107.584 19.9784 107.325 19.6154C106.56 18.5438 105.862 15.615 106.373 15.6203C106.49 15.6214 107.03 16.4251 107.03 16.5981C107.03 16.7552 107.441 17.1741 107.881 17.4657C108.403 17.8115 110.048 17.8622 115.775 17.7098C118.8 17.6291 119.449 17.5313 119.788 17.106C120.28 16.4889 121.201 16.4236 122.391 16.9211C123.071 17.2052 123.338 17.5831 123.435 18.395C123.521 19.1176 123.271 20.0594 122.916 20.3474C122.789 20.4509 122.758 21.3473 122.779 24.4206C122.801 27.818 122.833 28.3811 123.004 28.5053C123.822 29.1005 123.371 30.129 122.098 30.5673C121.728 30.695 117.928 30.7717 115.264 30.7054C115.124 30.7018 114.176 30.7428 113.158 30.7967C112.14 30.8503 111.123 30.8852 110.899 30.8742C110.674 30.8635 110.455 30.9116 110.411 30.9819C110.27 31.2068 110.182 33.8304 110.191 37.5447C110.2 41.0909 110.249 41.5712 110.634 41.8189C110.699 41.861 112.284 41.8724 114.157 41.8449C116.03 41.8171 119.257 41.7828 121.329 41.7685L125.095 41.7425L125.712 42.053C126.051 42.2243 126.383 42.4637 126.449 42.5858C126.641 42.9408 126.443 43.4151 125.943 43.7991C125.211 44.3594 124.257 44.4532 119.541 44.4272C117.259 44.414 114.444 44.4479 113.286 44.5021C112.127 44.556 110.978 44.5938 110.732 44.5853C110.334 44.5721 109.258 44.7387 108.66 44.9065C108.518 44.9464 108.259 44.7862 107.93 44.4557ZM113.158 43.8198C113.158 43.7506 113.133 43.6938 113.102 43.6938C113.071 43.6938 113.01 43.7509 112.966 43.8198C112.923 43.889 112.948 43.9458 113.023 43.9458C113.097 43.9458 113.158 43.889 113.158 43.8198ZM120.244 43.8198C120.477 43.7209 120.472 43.711 120.18 43.7049C120.004 43.701 119.774 43.7527 119.669 43.8198C119.511 43.9204 119.522 43.9408 119.733 43.9351C119.873 43.9315 120.104 43.8794 120.244 43.8198ZM113.924 43.0558C113.924 42.9747 113.833 42.978 113.669 43.0643C113.528 43.1385 113.413 43.256 113.413 43.3248C113.413 43.4062 113.504 43.403 113.669 43.3163C113.809 43.242 113.924 43.125 113.924 43.0558ZM108.562 43.0404C108.562 42.8734 108.148 42.968 108.087 43.1489C108.055 43.2427 108.132 43.2717 108.299 43.2288C108.444 43.1914 108.562 43.1068 108.562 43.0404ZM122.35 43.1903C122.35 43.1211 122.264 43.0643 122.158 43.0643C122.053 43.0643 121.967 43.1214 121.967 43.1903C121.967 43.2595 122.053 43.3163 122.159 43.3163C122.264 43.3163 122.35 43.2595 122.35 43.1903ZM114.945 43.135C114.945 43.1043 114.888 43.0443 114.818 43.0015C114.748 42.9587 114.69 42.9837 114.69 43.0572C114.69 43.1303 114.748 43.1903 114.818 43.1903C114.888 43.1903 114.945 43.1653 114.945 43.135ZM124.712 42.0572C124.755 41.988 124.672 41.9313 124.528 41.9313C124.383 41.9313 124.265 41.9884 124.265 42.0572C124.265 42.1265 124.348 42.1832 124.449 42.1832C124.55 42.1832 124.668 42.1265 124.712 42.0572ZM109.166 38.4565C109.123 38.4144 109.013 38.4101 108.921 38.4461C108.819 38.4865 108.849 38.5164 108.998 38.5225C109.133 38.5279 109.208 38.4982 109.166 38.4565ZM109.966 37.6774C109.966 37.5529 108.554 36.8613 108.47 36.9444C108.359 37.0536 108.573 37.2735 108.793 37.2763C108.912 37.2778 109.152 37.3898 109.328 37.5251C109.657 37.7788 109.966 37.8527 109.966 37.6774ZM109.456 35.3849C109.605 35.29 109.57 35.2625 109.296 35.2611C109.103 35.26 108.945 35.3157 108.945 35.3849C108.945 35.5441 109.206 35.5441 109.456 35.3849ZM110.094 33.2448C110.094 33.1756 110.008 33.1189 109.902 33.1189C109.797 33.1189 109.711 33.1756 109.711 33.2448C109.711 33.3141 109.797 33.3708 109.903 33.3708C110.008 33.3708 110.094 33.3137 110.094 33.2448ZM109.966 31.8602C109.966 31.7906 109.877 31.7339 109.767 31.7339C109.658 31.7339 109.604 31.791 109.647 31.8598C109.69 31.9291 109.78 31.9858 109.846 31.9858C109.912 31.9858 109.966 31.9294 109.966 31.8602ZM106.902 28.3347C106.902 28.2655 106.877 28.2091 106.846 28.2091C106.815 28.2091 106.754 28.2655 106.711 28.3347C106.667 28.4043 106.693 28.4607 106.767 28.4607C106.841 28.4607 106.902 28.4043 106.902 28.3347ZM122.733 20.9776C122.733 20.9469 122.675 20.8869 122.605 20.8441C122.535 20.8013 122.478 20.8263 122.478 20.8998C122.478 20.9729 122.535 21.0329 122.605 21.0329C122.675 21.0329 122.733 21.0079 122.733 20.9776ZM107.03 17.8857C107.03 17.8165 107.005 17.7597 106.974 17.7597C106.943 17.7597 106.882 17.8165 106.838 17.8857C106.795 17.9549 106.82 18.0117 106.895 18.0117C106.969 18.0117 107.03 17.9549 107.03 17.8857ZM123.082 17.8097C123.039 17.7679 122.929 17.7633 122.837 17.7997C122.735 17.84 122.765 17.8696 122.914 17.8757C123.049 17.8811 123.124 17.8514 123.082 17.8097ZM151.076 39.2687C150.864 38.9814 150.692 38.6524 150.692 38.5371C150.692 38.4222 150.551 37.9744 150.379 37.5415C150.172 37.0221 150.06 36.4705 150.049 35.9124C150.032 35.1059 150.072 34.7875 150.501 32.3634C150.692 31.2846 150.772 30.1868 150.867 27.359L150.918 25.817L150.581 25.8021C150.397 25.7938 150.188 25.7995 150.118 25.8145C150.047 25.8295 149.694 25.8584 149.332 25.8788C148.97 25.8988 148.458 25.9858 148.192 26.0722C147.711 26.2289 147.709 26.2281 147.226 25.6768C146.96 25.3731 146.74 25.0765 146.738 25.018C146.736 24.9595 146.625 24.7596 146.49 24.5737C146.093 24.0234 145.488 21.5914 145.646 21.1831C145.746 20.9262 146.183 21.3237 146.423 21.8897C146.708 22.5628 147.356 23.011 148.202 23.1209C149.015 23.2266 150.537 23.2676 150.669 23.1873C150.901 23.0456 150.817 18.8885 150.575 18.583C150.518 18.5109 150.437 18.0641 150.394 17.5899C150.272 16.2331 149.611 15.4251 148.164 14.8656L147.743 14.7025L148.081 14.3545C148.441 13.9834 149.391 13.7943 149.826 14.0062C149.946 14.0651 150.267 14.134 150.539 14.1597C150.81 14.1857 151.212 14.2981 151.43 14.4095C151.649 14.5212 151.898 14.6125 151.983 14.6125C152.238 14.6125 153.373 15.3816 153.373 15.5547C153.373 15.6425 153.467 15.7913 153.581 15.8851C153.753 16.0257 153.777 16.2191 153.714 17.0021C153.673 17.5228 153.581 18.1187 153.51 18.3261C153.217 19.1769 153.157 20.9005 153.205 27.076C153.233 30.6418 153.266 34.0695 153.278 34.6926C153.29 35.3157 153.253 36.4191 153.197 37.1446C153.114 38.2092 153.032 38.5682 152.773 39.0046C152.204 39.9621 151.649 40.0485 151.076 39.2687ZM151.211 37.8305C151.33 37.6889 151.497 37.6539 151.793 37.7088C152.329 37.8077 152.862 37.6742 152.862 37.4412C152.862 37.3341 152.801 37.296 152.714 37.3491C152.632 37.3991 152.251 37.4451 151.867 37.4512C151.293 37.4601 151.136 37.5119 150.979 37.7456C150.764 38.0657 150.954 38.1357 151.211 37.8305ZM153.118 31.6082C153.118 31.5749 153.104 31.5429 153.08 31.5193C153.056 31.4957 153.024 31.4824 152.99 31.4823C152.956 31.4824 152.924 31.4957 152.9 31.5193C152.876 31.5429 152.862 31.5749 152.862 31.6082C152.862 31.6775 152.92 31.7339 152.99 31.7339C153.024 31.7338 153.056 31.7205 153.08 31.697C153.104 31.6735 153.117 31.6416 153.118 31.6082ZM151.394 31.2303C151.351 31.1611 151.258 31.1047 151.188 31.1047C151.117 31.1047 151.095 31.1611 151.139 31.2303C151.182 31.2996 151.275 31.3563 151.345 31.3563C151.416 31.3563 151.437 31.2996 151.394 31.2303ZM152.16 30.3489C152.117 30.28 152.027 30.2232 151.961 30.2232C151.895 30.2232 151.841 30.28 151.841 30.3492C151.841 30.4184 151.931 30.4752 152.04 30.4752C152.15 30.4752 152.203 30.4181 152.16 30.3489ZM152.92 29.2258C153.012 29.0799 152.015 28.2723 151.586 28.1445C151.268 28.0499 151.267 28.051 151.51 28.3183C151.644 28.4657 151.817 28.5867 151.896 28.5867C151.975 28.5867 152.191 28.7565 152.375 28.9642C152.738 29.3711 152.808 29.405 152.92 29.2258ZM152.405 25.7407C152.516 25.6985 152.607 25.6136 152.607 25.5515C152.607 25.3681 152.14 25.4241 151.969 25.6282C151.839 25.7821 151.846 25.817 152.006 25.817C152.142 25.8117 152.277 25.786 152.405 25.7407ZM146.415 23.299C146.458 23.2298 146.433 23.1734 146.359 23.1734C146.284 23.1734 146.224 23.2298 146.224 23.299C146.224 23.3682 146.249 23.425 146.28 23.425C146.311 23.425 146.372 23.3682 146.415 23.299ZM153.09 22.3116C153.126 22.2031 153.065 22.1577 152.92 22.1856C152.794 22.2095 152.666 22.3051 152.635 22.3983C152.598 22.5068 152.659 22.5521 152.805 22.5242C152.93 22.5003 153.058 22.4047 153.09 22.3116ZM152.99 20.2774C152.99 20.2085 152.872 20.1518 152.727 20.1518C152.582 20.1518 152.5 20.2085 152.543 20.2778C152.586 20.347 152.705 20.4034 152.806 20.4034C152.907 20.4034 152.99 20.3466 152.99 20.2774ZM152.544 18.7661C152.827 18.4571 152.691 18.2772 152.338 18.4945C152.196 18.5816 151.969 18.6184 151.833 18.5755C151.555 18.4888 151.507 18.639 151.739 18.8678C151.966 19.0912 152.282 19.0516 152.544 18.7661ZM151.202 16.7527C151.202 16.6834 151.059 16.6267 150.883 16.6267C150.708 16.6267 150.564 16.6834 150.564 16.7527C150.564 16.8219 150.708 16.8786 150.883 16.8786C151.059 16.8786 151.202 16.8219 151.202 16.7527ZM153.5 16.3751C153.5 16.3059 153.386 16.2491 153.245 16.2491C153.105 16.2491 152.99 16.3059 152.99 16.3751C152.99 16.4443 153.105 16.5007 153.245 16.5007C153.386 16.5007 153.5 16.4443 153.5 16.3751ZM157.179 39.445C156.752 38.9946 156.565 38.6239 156.565 38.2334C156.565 38.0596 156.517 37.8887 156.459 37.853C156.27 37.7381 155.997 36.3503 155.998 35.5109C155.999 34.8268 156.173 33.3669 156.381 32.3006C156.618 31.0815 156.688 30.3817 156.758 28.5239C156.802 27.3466 156.834 26.327 156.828 26.2578C156.822 26.1885 156.797 24.7154 156.773 22.9842C156.706 18.2661 156.438 15.9804 155.844 15.0597C155.496 14.5208 154.86 14.0202 154.171 13.7422C153.943 13.6501 153.756 13.5352 153.756 13.4859C153.756 13.2854 154.371 12.8482 154.762 12.7711C155.17 12.6905 156.242 12.8571 157.012 13.1209C157.222 13.1929 157.538 13.29 157.714 13.3364C158.238 13.4756 159.243 14.1533 159.326 14.4238C159.369 14.5622 159.48 14.7617 159.573 14.867C159.782 15.1025 159.73 15.9768 159.435 17.1955C159.287 17.8058 159.21 18.7861 159.182 20.4037C159.145 22.531 159.121 27.0707 159.143 27.8312C159.148 28.0043 159.137 28.3443 159.118 28.5867C159.091 28.9214 159.178 32.3987 159.269 34.6295C159.273 34.7333 159.236 35.3568 159.187 36.0141C159.138 36.6722 159.075 37.5372 159.047 37.9365C158.996 38.6695 158.948 38.7695 158.33 39.4275C157.903 39.8825 157.597 39.8868 157.179 39.445ZM157.805 37.6328C158.523 37.6596 158.863 37.5643 158.863 37.3366C158.863 37.2025 158.772 37.191 158.448 37.2838C158.22 37.3491 157.871 37.368 157.673 37.3263C157.425 37.2735 157.237 37.3181 157.067 37.4697C156.775 37.7303 156.73 38.0075 157.017 37.772C157.126 37.6832 157.48 37.6207 157.805 37.6328ZM157.331 30.8528C157.331 30.8194 157.317 30.7874 157.293 30.7638C157.269 30.7402 157.237 30.7269 157.203 30.7268C157.169 30.7269 157.137 30.7402 157.113 30.7638C157.089 30.7874 157.075 30.8194 157.075 30.8528C157.075 30.922 157.133 30.9787 157.203 30.9787C157.237 30.9786 157.269 30.9653 157.293 30.9417C157.317 30.9181 157.331 30.8861 157.331 30.8528ZM158.225 29.9713C158.225 29.9024 158.106 29.8457 157.962 29.8457C157.817 29.8457 157.734 29.9024 157.777 29.9717C157.821 30.0409 157.939 30.0973 158.04 30.0973C158.142 30.0973 158.225 30.0405 158.225 29.9713ZM158.863 28.6602C158.863 28.4735 157.717 27.5796 157.477 27.5796C157.401 27.5796 157.372 27.6645 157.412 27.7684C157.453 27.8722 157.554 27.9575 157.638 27.9575C157.722 27.9575 157.986 28.1556 158.225 28.3979C158.69 28.8714 158.863 28.9425 158.863 28.6602ZM158.423 24.9959C158.66 24.8128 158.654 24.8057 158.298 24.8385C158.093 24.8574 157.901 24.9438 157.872 25.0301C157.8 25.2478 158.124 25.2275 158.423 24.9959ZM158.97 21.4801C158.999 21.3366 158.953 21.2763 158.843 21.3123C158.749 21.3434 158.651 21.4694 158.627 21.5932C158.599 21.7366 158.645 21.797 158.755 21.7609C158.849 21.7299 158.947 21.6039 158.97 21.4801ZM158.926 19.3963C158.972 19.3232 158.855 19.2743 158.647 19.2793C158.331 19.2871 158.319 19.3014 158.543 19.3963C158.684 19.4559 158.81 19.5087 158.823 19.5134C158.837 19.5184 158.883 19.4656 158.926 19.3963ZM158.526 17.7344C158.702 17.4568 158.542 17.2997 158.292 17.5049C158.185 17.5924 157.983 17.6338 157.842 17.5977C157.59 17.5328 157.486 17.7451 157.677 17.9332C157.833 18.0877 158.383 17.9589 158.526 17.7344ZM156.946 15.6132C156.772 15.5693 156.571 15.5647 156.502 15.6025C156.433 15.6407 156.519 15.7078 156.694 15.7517C156.868 15.7959 157.068 15.8005 157.138 15.7624C157.207 15.7245 157.122 15.6574 156.946 15.6132ZM159.437 15.2421C159.393 15.1728 159.247 15.1161 159.111 15.1161C158.974 15.1161 158.863 15.1728 158.863 15.2421C158.863 15.3113 159.01 15.3677 159.189 15.3677C159.375 15.3677 159.482 15.3134 159.437 15.2421ZM60.2401 37.4615C59.9536 37.3754 59.6659 37.2935 59.377 37.2157C58.8226 37.0633 58.4223 36.8274 57.7492 36.2564C57.2585 35.8399 56.8572 35.4395 56.8572 35.3671C56.8572 35.2943 56.7486 35.0845 56.6161 34.9007C56.1917 34.3118 55.8055 32.792 55.896 32.0654C56.0136 31.1208 56.2452 30.1958 56.4352 29.9121C56.5268 29.7754 56.6017 29.5673 56.6017 29.4496C56.6017 29.3318 56.7739 29.0656 56.9846 28.8579C57.1952 28.6502 57.3678 28.44 57.3678 28.3904C57.3678 28.1977 58.1144 27.6706 58.9956 27.242C59.8768 26.8138 59.9698 26.7952 60.9107 26.858C62.2942 26.9504 63.09 27.2295 63.9419 27.9211C64.9128 28.7098 65.5378 29.6651 65.7636 30.7082C65.8943 31.3113 65.8606 33.5788 65.7159 33.8872C65.5584 34.2237 65.1064 35.1005 64.7587 35.7447C64.4355 36.3431 63.1946 37.1893 62.3687 37.3734C61.7391 37.514 60.5376 37.5636 60.2401 37.4615ZM61.717 36.1911C62.6109 35.9317 63.4982 35.0666 63.8051 34.1545C64.1102 33.2488 64.0707 30.9909 63.737 30.2618C63.6042 29.9713 63.4957 29.6851 63.4957 29.6259C63.4957 29.5663 63.2351 29.2533 62.9163 28.93C61.7738 27.7709 60.1913 27.7066 59.1403 28.7765C58.2754 29.6565 57.9606 30.6062 57.9526 32.3634C57.9472 33.5153 57.991 33.8886 58.1665 34.1891C58.2881 34.3968 58.3876 34.6312 58.3883 34.7101C58.3898 34.9974 59.5308 35.9888 60.0718 36.1729C60.8086 36.4234 60.9114 36.4249 61.717 36.1911ZM78.9433 34.4271C78.07 33.505 77.8258 33.1163 77.55 32.2103C77.4172 31.7733 77.283 31.3367 77.1472 30.9006C77.0267 30.5173 77.0929 30.0976 77.2735 30.0976C77.4158 30.0976 78.0498 30.7885 78.0498 30.9434C78.0498 31.0205 78.2789 31.2624 78.5586 31.4808C79.3866 32.1278 80.4867 32.1807 87.1777 31.8959C88.3014 31.8481 89.8966 31.822 90.7224 31.8373C92.4407 31.8698 92.3625 31.923 92.534 30.6008C92.6281 29.8753 92.8102 29.1826 93.0067 28.8022C93.0707 28.678 93.0874 28.5196 93.0439 28.4503C93.0005 28.3811 93.0881 27.9254 93.2383 27.4376C93.3885 26.9497 93.5419 26.2296 93.5792 25.8374C93.6791 24.7846 93.6338 22.9225 93.4959 22.4147C93.3812 21.9922 92.8417 21.3926 92.0498 20.807L91.688 20.539L92.1139 20.2813C92.4497 20.0779 92.6611 20.0401 93.1142 20.1029C93.4304 20.1468 93.7826 20.2635 93.8973 20.362C94.0116 20.4608 94.3116 20.5975 94.5632 20.6664C94.8154 20.7349 95.1892 20.9305 95.3948 21.1007C95.6003 21.2713 95.8204 21.4108 95.8833 21.4108C96.1247 21.4108 96.9078 22.3769 97.0624 22.8643C97.2495 23.4567 97.1022 24.2008 96.6961 24.7093C96.5601 24.8799 96.3538 25.2696 96.2376 25.5758C96.1218 25.8816 95.9709 26.2481 95.9029 26.3905C95.8345 26.5329 95.7918 26.7028 95.8077 26.7681C95.8236 26.8337 95.7679 27.0518 95.6836 27.2534C95.5996 27.4547 95.5435 27.7098 95.5591 27.8198C95.5949 28.0749 95.4143 28.8622 95.2822 29.0274C95.2265 29.0966 95.1476 29.3653 95.106 29.6244C95.048 29.9627 94.9772 30.2988 94.8936 30.6319C94.5747 31.8766 94.5603 31.7781 95.0481 31.6878C95.6651 31.5736 101.118 31.5658 101.725 31.6782C102.311 31.7867 103.018 32.1692 103.121 32.4333C103.237 32.7309 103.001 33.1724 102.541 33.5185C101.869 34.0239 100.841 34.1081 94.3272 34.1927C85.4609 34.3072 82.3932 34.4425 79.8372 34.8311C79.4438 34.8907 79.3363 34.8421 78.9433 34.4271ZM84.114 33.874C84.1574 33.8051 84.1353 33.7484 84.0651 33.7484C83.9949 33.7484 83.9019 33.8051 83.8585 33.8743C83.815 33.9436 83.8368 33.9999 83.9073 33.9999C83.9775 33.9999 84.0705 33.9432 84.114 33.874ZM81.2413 33.6927C81.2413 33.5599 80.9963 33.5043 80.9235 33.6202C80.8794 33.6909 80.933 33.7484 81.0422 33.7484C81.1519 33.7484 81.2413 33.7234 81.2413 33.6927ZM94.7741 33.6224L95.093 33.5218L94.7741 33.511C94.5983 33.5053 94.3688 33.5553 94.2632 33.6224C94.0931 33.7309 94.0931 33.7434 94.2632 33.7337C94.3685 33.728 94.5983 33.6777 94.7741 33.6224ZM84.7574 33.2363C84.8964 33.0146 84.7502 32.9832 84.4874 33.1792C84.2714 33.3401 84.2678 33.3633 84.4574 33.3665C84.5761 33.3687 84.7111 33.3101 84.7574 33.2363ZM85.8373 33.1189C85.8372 33.0855 85.8237 33.0535 85.7998 33.0299C85.7758 33.0063 85.7434 32.993 85.7095 32.9929C85.6757 32.9931 85.6434 33.0064 85.6195 33.03C85.5957 33.0536 85.5822 33.0855 85.5822 33.1189C85.5822 33.1881 85.6393 33.2448 85.7095 33.2448C85.7434 33.2447 85.7758 33.2314 85.7998 33.2078C85.8237 33.1842 85.8372 33.1522 85.8373 33.1189ZM97.5828 32.9929C97.5828 32.9236 97.324 32.8669 97.0081 32.8669C96.6922 32.8669 96.4338 32.924 96.4338 32.9929C96.4338 33.0621 96.6922 33.1189 97.0081 33.1189C97.324 33.1189 97.5828 33.0621 97.5828 32.9929ZM78.0498 32.2378C78.0498 32.1685 78.0244 32.1118 77.9933 32.1118C77.9622 32.1118 77.9014 32.1685 77.858 32.2378C77.8146 32.307 77.8399 32.3634 77.9144 32.3634C77.989 32.3634 78.0498 32.307 78.0498 32.2378ZM101.349 31.8598C101.392 31.7906 101.309 31.7339 101.165 31.7339C101.02 31.7339 100.902 31.791 100.902 31.8598C100.902 31.9291 100.985 31.9858 101.086 31.9858C101.187 31.9858 101.306 31.9291 101.349 31.8598ZM94.1701 30.5184C94.0833 30.4838 93.911 30.482 93.7869 30.5137C93.6628 30.5458 93.7333 30.5737 93.944 30.5765C94.1549 30.579 94.2563 30.553 94.1701 30.5184ZM95.3832 27.9811C95.4114 27.8972 95.3163 27.8312 95.1675 27.8312C94.9023 27.8312 94.823 27.9632 94.9895 28.1274C95.1078 28.2444 95.321 28.1648 95.3832 27.9811ZM95.604 26.1946C95.2526 26.0458 95.1274 26.0458 95.2207 26.1946C95.2641 26.2638 95.4255 26.3166 95.5793 26.3116C95.849 26.3031 95.85 26.2992 95.604 26.1946ZM95.6676 24.8728C95.7552 24.7693 95.8052 24.6808 95.7791 24.6772C95.3836 24.6201 94.6464 24.623 94.6464 24.6818C94.6464 25.0412 95.4064 25.1832 95.6676 24.8728ZM96.9444 23.4396C96.9444 23.2944 96.4522 23.1684 96.3733 23.2933C96.3574 23.3212 96.3508 23.3534 96.3547 23.3852C96.3585 23.4171 96.3725 23.4468 96.3947 23.4703C96.517 23.5913 96.9444 23.5674 96.9444 23.4396ZM94.4622 23.2323C94.1785 23.0206 94.008 22.9949 94.008 23.1641C94.008 23.2283 94.1086 23.3068 94.2313 23.3382C94.6489 23.4457 94.7108 23.4175 94.4622 23.2323ZM20.4319 34.4746C20.2271 34.2633 20.2097 34.0831 20.2795 32.8904C20.323 32.1507 20.3552 27.8062 20.3508 23.2362C20.3465 18.6662 20.3436 14.7763 20.345 14.5922C20.3391 14.3703 20.2986 14.1507 20.2249 13.9409C20.0758 13.5548 20.2864 13.3364 20.6635 13.4863C20.8039 13.5419 21.1593 13.5916 21.4539 13.5965C21.7481 13.6012 22.0246 13.6619 22.068 13.7311C22.1114 13.8003 22.2779 13.8571 22.4386 13.8571C23.1928 13.8571 23.3914 14.8377 22.7701 15.4936C22.5594 15.716 22.3854 15.9629 22.3828 16.0421C22.3698 16.531 22.3648 22.0161 22.3763 22.7955C22.3843 23.3147 22.4368 23.8111 22.4929 23.8982C22.5638 24.0088 22.7751 24.0316 23.1946 23.9749C23.834 23.8885 23.8445 23.8775 24.425 22.6695C24.8151 21.8587 25.232 21.2866 25.4336 21.2856C25.6055 21.2849 26.3998 22.1017 26.6582 22.5453C26.7317 22.6709 27.0082 23.0271 27.2734 23.3361C27.7757 23.9228 28.0059 24.8196 27.7363 25.1401C27.6397 25.2543 26.9575 25.2757 24.9975 25.225L22.3872 25.1572L22.3644 26.337C22.3517 27.0028 22.349 27.6688 22.3564 28.3347C22.3695 29.0574 22.3803 31.22 22.3734 31.7339C22.372 31.8381 22.4024 32.206 22.4407 32.5525C22.4791 32.8987 22.4498 33.4793 22.3756 33.8426C22.2309 34.5534 22.2182 34.5624 21.1741 34.6634C20.7942 34.7001 20.6042 34.6523 20.4319 34.4746ZM21.4933 33.1189C21.4932 33.0855 21.4797 33.0535 21.4558 33.0299C21.4319 33.0063 21.3994 32.993 21.3656 32.9929C21.3318 32.9931 21.2994 33.0064 21.2756 33.03C21.2517 33.0536 21.2383 33.0855 21.2382 33.1189C21.2382 33.1881 21.2954 33.2448 21.3656 33.2448C21.3994 33.2447 21.4319 33.2314 21.4558 33.2078C21.4797 33.1842 21.4932 33.1522 21.4933 33.1189ZM21.7513 28.1431C21.84 28.0375 21.8773 27.9161 21.8339 27.8733C21.7412 27.7819 21.3656 28.0635 21.3656 28.2244C21.3656 28.3979 21.5737 28.354 21.7513 28.1431ZM22.2008 26.9415C22.3383 26.7224 22.1816 26.676 22.0065 26.8841C21.9059 27.0036 21.8961 27.076 21.9811 27.076C22.0557 27.076 22.1545 27.0154 22.2008 26.9415ZM21.6211 25.8317C21.6211 25.7228 20.9621 25.5455 20.8741 25.6308C20.8495 25.6547 20.8673 25.735 20.9139 25.8085C21.0149 25.9701 21.6211 25.9898 21.6211 25.8317ZM27.3661 25.0616C27.366 25.0282 27.3525 24.9962 27.3285 24.9726C27.3046 24.949 27.2722 24.9357 27.2383 24.9356C27.2045 24.9357 27.172 24.949 27.1481 24.9726C27.1242 24.9962 27.1107 25.0282 27.1106 25.0616C27.1106 25.1308 27.1685 25.1875 27.2383 25.1875C27.2722 25.1874 27.3046 25.1741 27.3285 25.1505C27.3525 25.1269 27.366 25.0949 27.3661 25.0616ZM23.9755 24.7818C24.2831 24.3485 24.2118 24.2629 23.7899 24.5591C23.5785 24.7075 23.4381 24.8813 23.4783 24.9452C23.597 25.1347 23.7642 25.0798 23.9755 24.7818ZM26.0459 23.3404C25.9348 23.2305 25.443 23.4367 25.5208 23.5602C25.5649 23.6309 25.697 23.623 25.8526 23.5409C25.9949 23.466 26.0817 23.3757 26.0459 23.3404ZM25.6746 22.0717C25.7054 21.9804 25.6192 21.9144 25.469 21.9144C25.19 21.9144 25.0221 22.0785 25.1611 22.2159C25.2895 22.3426 25.6138 22.2516 25.6746 22.0717ZM21.7513 21.0929C21.84 20.9876 21.8773 20.8659 21.8339 20.8231C21.7412 20.7317 21.3656 21.0133 21.3656 21.1742C21.3656 21.3477 21.5737 21.3038 21.7513 21.0929ZM22.1849 19.8192C22.2518 19.6465 22.2334 19.6386 22.0709 19.7717C21.8491 19.953 21.8263 20.0258 21.9902 20.0258C22.0532 20.0258 22.1404 19.933 22.1849 19.8192ZM21.5552 18.7707C21.6431 18.6301 21.0145 18.4417 20.8846 18.5698C20.7876 18.6655 21.0934 18.8878 21.3261 18.891C21.4097 18.8921 21.5132 18.8378 21.5552 18.7707ZM22.1317 17.6338C22.1317 17.5645 22.0709 17.5081 21.9963 17.5081C21.9222 17.5081 21.8968 17.5645 21.9403 17.6338C21.9837 17.703 22.0445 17.7597 22.0752 17.7597C22.1064 17.7597 22.1317 17.703 22.1317 17.6338ZM21.4933 16.1232C21.4933 16.0539 21.468 15.9972 21.4372 15.9972C21.4061 15.9972 21.3453 16.0539 21.3019 16.1232C21.2585 16.1924 21.2838 16.2491 21.358 16.2491C21.4325 16.2491 21.4933 16.1924 21.4933 16.1232ZM22.4404 15.5433C22.5515 15.5011 22.6423 15.3891 22.6423 15.2945C22.6423 15.16 22.5678 15.15 22.3011 15.2503C22.1132 15.3206 21.7828 15.3448 21.5668 15.3038C21.1948 15.2338 21.1872 15.2403 21.422 15.4251C21.679 15.6271 22.0919 15.6753 22.4404 15.5433ZM133.954 33.267C133.193 32.7838 132.687 31.8573 132.929 31.3895C133.603 30.0834 133.765 29.2394 133.733 27.2017C133.711 25.7457 133.616 25.059 133.403 24.81C132.971 24.3046 132.57 22.5303 132.807 22.1738C132.908 22.0221 133.006 22.045 133.416 22.3133C134.352 22.9282 134.649 22.9821 137.032 22.9689C141.045 22.9475 141.307 22.9286 141.483 22.6491C141.57 22.5128 141.665 21.8951 141.695 21.2763L141.75 20.1518L140.827 20.134C138.153 20.0836 135.675 20.2003 134.929 20.4123C134.429 20.5547 134.416 20.5497 134.005 20.0708C133.776 19.8039 133.588 19.5451 133.586 19.4962C133.585 19.4477 133.442 19.2011 133.269 18.9488C133.095 18.6965 132.915 18.2833 132.869 18.0302C132.808 17.7248 132.725 17.4241 132.621 17.1302C132.386 16.4975 132.297 15.7131 132.435 15.4944C132.536 15.3331 132.582 15.342 132.757 15.5572C132.868 15.6953 133.04 15.9843 133.138 16.1995C133.326 16.6099 134.122 17.3722 134.387 17.3961C134.472 17.4032 134.743 17.4371 134.989 17.4703C136.235 17.6398 140.629 17.4767 140.926 17.2501C141.248 17.0039 142.508 16.6285 142.968 16.6417C143.898 16.6688 144.218 16.7937 144.478 17.233C144.68 17.5749 144.699 17.7073 144.581 17.9628C144.501 18.1348 144.436 18.3999 144.434 18.5527C144.433 18.7051 144.342 19.0848 144.232 19.3963C143.948 20.1946 143.952 23.0649 144.236 23.4931C144.534 23.9414 144.48 24.3746 144.068 24.8371C143.511 25.463 142.948 25.564 139.968 25.5715C138.528 25.5751 137.06 25.6086 136.705 25.6461L136.059 25.7139L136.049 28.0945C136.04 30.4402 136.044 30.4752 136.312 30.4902C136.462 30.4984 136.642 30.4902 136.712 30.4716C136.854 30.4352 137.096 30.4338 137.861 30.4656C138.142 30.4773 139.291 30.4484 140.415 30.4013C145.425 30.1911 145.953 30.2236 146.668 30.7867C147.037 31.0776 147.005 31.8377 146.604 32.3184C146.036 32.9982 145.877 33.0143 140.223 32.9661C139.15 32.9568 136.416 33.156 135.468 33.3123C134.853 33.4136 134.336 33.4925 134.319 33.4871C134.301 33.4821 134.137 33.3833 133.954 33.267ZM137.67 32.4893C137.67 32.456 137.656 32.424 137.632 32.4004C137.609 32.3768 137.576 32.3635 137.542 32.3634C137.508 32.3635 137.476 32.3768 137.452 32.4004C137.428 32.424 137.415 32.456 137.415 32.4893C137.415 32.5586 137.472 32.6153 137.542 32.6153C137.576 32.6152 137.609 32.6019 137.632 32.5783C137.656 32.5547 137.67 32.5227 137.67 32.4893ZM142.723 32.2684C142.633 32.1796 142.138 32.3712 142.138 32.495C142.138 32.5582 142.282 32.545 142.458 32.4665C142.634 32.3873 142.753 32.2984 142.723 32.2684ZM138.181 31.7099C138.181 31.5447 137.89 31.6482 137.827 31.8363C137.796 31.9284 137.854 31.9565 137.979 31.9094C138.09 31.8673 138.181 31.7774 138.181 31.7099ZM144.053 31.7339C144.053 31.6646 144.028 31.6082 143.997 31.6082C143.966 31.6082 143.905 31.6646 143.862 31.7339C143.818 31.8031 143.844 31.8598 143.918 31.8598C143.993 31.8598 144.053 31.8031 144.053 31.7339ZM145.713 30.6008C145.713 30.5675 145.699 30.5356 145.675 30.5121C145.651 30.4885 145.619 30.4753 145.585 30.4752C145.551 30.4753 145.519 30.4885 145.495 30.5121C145.471 30.5356 145.458 30.5675 145.457 30.6008C145.457 30.67 145.515 30.7268 145.585 30.7268C145.619 30.7267 145.652 30.7134 145.675 30.6898C145.699 30.6662 145.713 30.6342 145.713 30.6008ZM135.755 29.2262C135.755 29.087 134.493 28.6563 134.388 28.7597C134.347 28.7997 134.423 28.8679 134.556 28.9107C134.689 28.9539 134.999 29.0656 135.244 29.1591C135.797 29.3696 135.755 29.3639 135.755 29.2262ZM135.276 27.748C135.173 27.7131 135.06 27.7131 134.957 27.748C134.869 27.783 134.941 27.8116 135.117 27.8116C135.292 27.8116 135.364 27.783 135.276 27.748ZM135.883 26.4465C135.883 26.3773 135.796 26.3206 135.691 26.3206C135.586 26.3206 135.5 26.3773 135.5 26.4465C135.5 26.5158 135.586 26.5725 135.691 26.5725C135.796 26.5725 135.883 26.5154 135.883 26.4465ZM139.149 25.0619C139.248 25.0619 139.33 25.0048 139.33 24.9356C139.33 24.7464 139.027 24.7843 138.748 25.0091C138.521 25.1911 138.52 25.2018 138.734 25.1347C138.862 25.0947 139.049 25.0619 139.149 25.0619ZM140.862 24.432C140.861 24.3988 140.848 24.3669 140.824 24.3434C140.8 24.3199 140.768 24.3066 140.734 24.3064C140.7 24.3065 140.668 24.3198 140.644 24.3433C140.62 24.3668 140.607 24.3987 140.606 24.432C140.606 24.5013 140.664 24.558 140.734 24.558C140.768 24.5578 140.8 24.5445 140.824 24.5209C140.848 24.4973 140.861 24.4654 140.862 24.432ZM143.728 21.8055C143.568 21.6628 142.381 21.3805 142.296 21.4651C142.259 21.5011 142.309 21.5525 142.407 21.5793C142.505 21.606 142.757 21.6863 142.968 21.7577C143.456 21.9229 143.889 21.9504 143.728 21.8055ZM143.415 20.5779C143.415 20.5511 143.268 20.5294 143.088 20.5294C142.909 20.5294 142.794 20.5808 142.833 20.6436C142.898 20.7478 143.415 20.69 143.415 20.5779ZM139.138 19.5223L139.393 19.4142L139.138 19.407C138.998 19.4035 138.797 19.4552 138.691 19.5223C138.521 19.6308 138.521 19.6436 138.691 19.6376C138.797 19.6336 138.998 19.5819 139.138 19.5223ZM135.976 19.1943C135.933 19.1526 135.823 19.1479 135.731 19.1843C135.629 19.2247 135.659 19.2546 135.808 19.2607C135.943 19.2661 136.018 19.2361 135.976 19.1943ZM140.989 18.9631C140.989 18.8303 140.744 18.7747 140.672 18.8906C140.627 18.9613 140.681 19.0188 140.79 19.0188C140.9 19.0188 140.989 18.9938 140.989 18.9631ZM133.201 17.6338C133.201 17.5645 133.176 17.5081 133.145 17.5081C133.114 17.5081 133.053 17.5645 133.01 17.6338C132.967 17.703 132.992 17.7597 133.066 17.7597C133.141 17.7597 133.201 17.703 133.201 17.6338ZM14.5675 33.0382C14.3742 32.9365 14.2164 32.7741 14.2164 32.677C14.2164 32.58 14.0742 32.2941 13.9005 32.0418C13.7268 31.7892 13.5466 31.3759 13.5003 31.1233C13.4536 30.8706 13.2795 30.3967 13.1138 30.0702C12.9477 29.7436 12.812 29.3611 12.812 29.2205C12.812 29.0795 12.7533 28.9642 12.6813 28.9642C12.6089 28.9642 12.4931 28.8086 12.4233 28.6181C12.2315 28.0967 12.0252 27.7116 11.5631 27.015C11.3329 26.6678 11.1122 26.2603 11.0731 26.1093C11.0336 25.9587 10.9207 25.8045 10.8216 25.7671C10.7228 25.7296 10.6417 25.6432 10.6417 25.5754C10.6417 25.4066 9.99428 24.4781 9.45 23.8657C9.07978 23.4492 8.96326 23.3854 8.77725 23.4963C8.49751 23.6633 8.42621 23.8029 8.13924 24.7468C8.01257 25.1622 7.69085 25.8274 7.42414 26.2246C7.15743 26.6221 6.93921 27.0293 6.93921 27.1299C6.93921 27.2306 6.87588 27.3512 6.7988 27.3987C6.72135 27.4458 6.57804 27.6734 6.48033 27.9043C6.38226 28.1352 6.05765 28.5899 5.75909 28.9146C4.271 30.533 3.82442 30.9787 3.69016 30.9787C3.60982 30.9787 3.31742 31.2093 3.03949 31.4908C2.47458 32.0643 0.945595 32.8669 0.418684 32.8669C0.132429 32.8669 0.0647558 32.8023 0.0169864 32.4826C-0.0329543 32.146 0.0111963 32.0764 0.368743 31.9294C0.593838 31.8366 0.857293 31.6493 0.954279 31.5137C1.05127 31.3777 1.24668 31.2303 1.38855 31.1864C1.53004 31.1422 2.01317 30.6808 2.46191 30.1612C2.91065 29.6412 3.3261 29.2162 3.38473 29.2162C3.44408 29.2162 3.4933 29.1452 3.49438 29.0588C3.49547 28.9721 3.75747 28.6181 4.0763 28.2719C4.88512 27.394 6.11157 24.8496 6.42171 23.4053C6.48648 23.1045 6.6316 22.4903 6.74523 22.0403C7.0409 20.8648 7.12956 19.8271 6.94391 19.7136C6.86068 19.6629 6.26284 19.6097 5.61578 19.5954C4.968 19.5812 4.38354 19.5355 4.31587 19.4945C4.2482 19.4534 3.90621 19.4677 3.55554 19.5266C2.77495 19.6579 1.0614 19.7557 0.843179 19.6815C0.755602 19.6515 0.683947 19.5298 0.683947 19.4109C0.683947 19.2921 0.634006 19.1412 0.57357 19.0755C0.394435 18.8806 0.189244 17.8907 0.312286 17.8158C0.374169 17.7779 0.749087 17.7844 1.14572 17.83C1.54235 17.8757 2.44816 17.93 3.15819 17.9507C4.43674 17.9881 12.9401 18.0495 13.3374 18.0245C13.4576 18.017 13.6331 17.7801 13.7583 17.456C13.8766 17.1506 14.0511 16.8715 14.1455 16.8358C14.24 16.8001 14.4115 16.4914 14.5266 16.1503C14.6413 15.8091 14.8704 15.4044 15.0358 15.2517L15.3361 14.9733L15.8486 15.454C16.4095 15.9797 17.4083 17.3786 17.4083 17.6391C17.4083 17.7294 17.4966 17.8996 17.6048 18.0174C17.8813 18.3186 17.9902 19.0966 17.7894 19.3353C17.6569 19.4927 17.3841 19.5184 16.3049 19.4741C15.5453 19.4431 14.9511 19.4705 14.908 19.5391C14.8668 19.6047 14.7307 19.6265 14.6055 19.5872C14.4799 19.548 13.3642 19.4945 12.1254 19.468C10.0967 19.4252 9.84554 19.4431 9.58752 19.649C9.43009 19.775 9.29004 20.0101 9.27629 20.1721C9.24553 20.473 9.20788 20.773 9.16338 21.0722C9.08015 21.6421 9.10005 21.7038 9.50718 22.1213C9.74494 22.3654 10.1079 22.652 10.3135 22.7583C10.519 22.8643 10.8708 23.1427 11.0944 23.3768C11.3184 23.6112 11.5323 23.8025 11.5696 23.8025C11.681 23.8025 13.6063 25.781 14.0887 26.3912C14.3348 26.7021 14.6938 27.1471 14.8874 27.3797C15.3419 27.9268 15.8761 29.1209 15.8761 29.5898C15.8761 29.7918 15.9282 29.9884 15.9919 30.0273C16.0556 30.0662 16.0975 30.5369 16.0849 31.0733C16.0668 31.8495 15.9966 32.1646 15.7436 32.615C15.394 33.2377 15.1284 33.3333 14.5675 33.0382ZM13.3226 29.0349C13.3226 29.0042 13.2654 28.9442 13.1952 28.9014C13.1246 28.8586 13.0674 28.8836 13.0674 28.9571C13.0674 29.0302 13.1246 29.0902 13.1952 29.0902C13.2654 29.0902 13.3226 29.0652 13.3226 29.0349ZM14.7267 28.8386C14.7267 28.7694 14.6728 28.7126 14.6069 28.7126C14.5407 28.7126 14.4513 28.7694 14.4079 28.8386C14.3645 28.9078 14.4187 28.9642 14.528 28.9642C14.6373 28.9642 14.7267 28.9078 14.7267 28.8386ZM12.7483 28.2091C12.7917 28.1399 12.7664 28.0831 12.6918 28.0831C12.6176 28.0831 12.5568 28.1399 12.5568 28.2091C12.5568 28.2783 12.5822 28.3347 12.6129 28.3347C12.644 28.3347 12.7048 28.2783 12.7483 28.2091ZM5.98201 28.0831C6.02544 28.0139 6.0001 27.9571 5.92556 27.9571C5.85137 27.9571 5.79021 28.0139 5.79021 28.0831C5.79021 28.1524 5.81554 28.2091 5.84666 28.2091C5.87779 28.2091 5.93858 28.152 5.98201 28.0831ZM13.7695 27.8312C13.7261 27.7619 13.6331 27.7056 13.5632 27.7056C13.4927 27.7056 13.471 27.7619 13.514 27.8312C13.5574 27.9004 13.6505 27.9571 13.7207 27.9571C13.7909 27.9571 13.8129 27.9004 13.7695 27.8312ZM14.5356 27.5796C14.5791 27.5104 14.5212 27.4536 14.4079 27.4536C14.2943 27.4536 14.2367 27.5104 14.2801 27.5796C14.3236 27.6488 14.3811 27.7056 14.4079 27.7056C14.4347 27.7056 14.4922 27.6485 14.5356 27.5796ZM13.3899 27.2263C13.3504 27.1874 13.2477 27.2263 13.1608 27.3119C13.036 27.4365 13.0504 27.4511 13.2325 27.3826C13.3584 27.3351 13.4293 27.2648 13.3899 27.2263ZM11.765 25.5401C12.0093 25.2992 11.9423 25.1704 11.663 25.3428C11.4049 25.5016 11.3217 25.6911 11.5099 25.6911C11.566 25.6911 11.681 25.6233 11.765 25.5401ZM6.1094 25.4395C6.15282 25.3702 6.12749 25.3135 6.0533 25.3135C5.97875 25.3135 5.91796 25.3702 5.91796 25.4395C5.91796 25.5087 5.94329 25.5651 5.97441 25.5651C6.00517 25.5651 6.06597 25.5087 6.1094 25.4395ZM6.46658 24.8688C6.76152 24.4692 6.68371 24.4709 6.3012 24.8728C6.13618 25.0459 6.05439 25.1857 6.11917 25.1832C6.18431 25.1815 6.34028 25.0398 6.46658 24.8688ZM6.93921 24.0545C6.93921 23.9852 6.91388 23.9285 6.88312 23.9285C6.85199 23.9285 6.7912 23.9852 6.74777 24.0545C6.70434 24.1237 6.72967 24.1805 6.80422 24.1805C6.87841 24.1805 6.93921 24.1237 6.93921 24.0545ZM7.13608 22.5353C7.27359 22.3162 7.1169 22.2698 6.94174 22.4779C6.84114 22.5974 6.83136 22.6695 6.91641 22.6695C6.99096 22.6695 7.09012 22.6092 7.13608 22.5353ZM8.14177 19.0066C8.31837 18.8475 7.83054 18.7069 7.60002 18.8503C7.22981 19.0805 7.26672 19.2885 7.66082 19.1965C7.86094 19.1501 8.07699 19.0644 8.14177 19.0066ZM14.8107 19.0762C14.8523 18.9692 14.8519 18.8478 14.8096 18.8064C14.7191 18.7168 14.3442 19.0013 14.3442 19.1597C14.3442 19.3499 14.7314 19.2803 14.8107 19.0762ZM9.93964 18.6408C9.98306 18.572 9.96099 18.5152 9.89078 18.5152C9.82057 18.5152 9.72757 18.572 9.6845 18.6412C9.64108 18.7104 9.66279 18.7668 9.733 18.7668C9.8032 18.7668 9.89621 18.7101 9.93964 18.6408ZM15.7483 15.7495C15.7483 15.6824 15.6622 15.6603 15.5565 15.6999C15.4516 15.7399 15.3654 15.7948 15.3654 15.822C15.3654 15.8491 15.4516 15.8712 15.5569 15.8712C15.6622 15.8712 15.7483 15.8166 15.7483 15.7495ZM28.2096 32.7167C28.0964 32.5464 27.9896 32.0996 27.9722 31.7246L27.9404 31.0415L28.5151 31.0747C28.831 31.0926 29.4632 31.1422 29.9192 31.1843C30.3759 31.2264 31.0078 31.2817 31.3237 31.307C31.9317 31.3563 36.7698 31.3649 38.6006 31.3199L39.6859 31.2935L39.6736 29.4681C39.6671 28.4639 39.6164 27.4251 39.5614 27.1592L39.4619 26.676L40.2121 26.7652C40.6246 26.8145 41.1924 26.9319 41.4732 27.0265C41.7541 27.121 42.07 27.1999 42.1753 27.202C42.4525 27.2081 42.8915 27.7123 42.9678 28.1135C43.0185 28.3822 42.9422 28.551 42.6219 28.8761C42.3957 29.1059 42.1536 29.4042 42.0837 29.5384C41.8941 29.9046 41.8941 31.2278 42.0837 31.2425C42.1692 31.2492 42.8998 31.2724 43.7072 31.2942C44.5149 31.3156 46.1637 31.3656 47.371 31.4048L49.5669 31.4766L49.813 31.1333C49.948 30.9441 50.2639 30.3931 50.515 29.9085C51.2537 28.4807 51.3709 28.3501 51.7686 28.5131C52.1747 28.6794 53.0758 29.6134 53.4189 30.2232C53.5549 30.4659 53.7844 30.8096 53.9291 30.9876C54.0739 31.1661 54.2085 31.3923 54.2284 31.4912C54.2487 31.59 54.3073 31.7667 54.3587 31.8837C54.4104 32.0008 54.3746 32.2556 54.2791 32.4504C54.1347 32.7438 54.0297 32.8012 53.662 32.7873C53.1388 32.7658 52.6156 32.743 52.0925 32.7188C51.4737 32.6903 50.9385 32.7124 50.9041 32.7673C50.8693 32.8226 50.7441 32.8216 50.6254 32.7652C50.2762 32.5993 33.55 32.7409 29.9652 32.9401C28.417 33.0264 28.4152 33.0264 28.2096 32.7167ZM30.7874 32.59C31.0316 32.3495 30.9647 32.2206 30.6853 32.3926C30.4273 32.5514 30.3441 32.7413 30.5322 32.7413C30.5883 32.7413 30.703 32.6735 30.7874 32.59ZM34.9828 32.2788C34.8713 32.1689 34.3798 32.3751 34.4573 32.4986C34.5014 32.5693 34.6339 32.5614 34.7895 32.4794C34.9314 32.4044 35.0186 32.3141 34.9828 32.2788ZM44.4147 32.1032C44.5536 31.8816 44.4074 31.8502 44.1447 32.0461C43.929 32.2071 43.925 32.2299 44.1147 32.2335C44.2334 32.2356 44.368 32.1771 44.4147 32.1032ZM36.0474 31.9858C36.0474 31.9166 36.0221 31.8598 35.991 31.8598C35.9602 31.8598 35.8991 31.9166 35.856 31.9858C35.8126 32.055 35.8379 32.1118 35.9121 32.1118C35.9866 32.1118 36.0474 32.055 36.0474 31.9858ZM49.7811 31.7189C49.8191 31.6582 49.7942 31.6082 49.7258 31.6082C49.5079 31.6082 49.197 31.757 49.197 31.8616C49.197 31.9879 49.6874 31.868 49.7811 31.7189ZM41.1537 31.7339C41.3097 31.6346 41.293 31.6115 41.0658 31.61C40.912 31.609 40.7509 31.6646 40.7075 31.7339C40.6069 31.8944 40.9022 31.8944 41.1537 31.7339ZM45.5586 31.7339C45.602 31.6646 45.5767 31.6082 45.5022 31.6082C45.428 31.6082 45.3672 31.6646 45.3672 31.7339C45.3672 31.8031 45.3925 31.8598 45.4233 31.8598C45.4544 31.8598 45.5152 31.8031 45.5586 31.7339ZM54.0174 31.58C53.9888 31.4951 53.6881 31.2649 53.3486 31.0687C52.8529 30.7814 52.6393 30.7268 52.2594 30.7903C51.8164 30.8638 51.7527 30.831 51.2576 30.2764C50.9671 29.951 50.7293 29.7383 50.7293 29.8039C50.7293 29.8946 51.4484 30.7992 51.9525 31.342C51.9771 31.3684 52.1732 31.3185 52.3878 31.2307C52.7193 31.0954 52.812 31.1015 53.0009 31.2699C53.4026 31.6286 54.1061 31.8431 54.0174 31.58ZM50.7289 30.7899C50.6385 30.6829 50.536 30.6233 50.5009 30.6579C50.4658 30.6925 50.5111 30.8085 50.6012 30.9156C50.6917 31.0226 50.7941 31.0822 50.8292 31.0476C50.8643 31.013 50.8194 30.897 50.7289 30.7899ZM40.8986 29.8457C40.8986 29.7765 40.8732 29.7197 40.8425 29.7197C40.8113 29.7197 40.7505 29.7765 40.7071 29.8457C40.6637 29.9149 40.689 29.9717 40.7636 29.9717C40.8378 29.9717 40.8986 29.9146 40.8986 29.8457ZM42.1677 29.0145C42.4406 28.7622 42.324 28.7326 41.4092 28.824L40.5794 28.9064L40.9626 29.1077C41.3763 29.3247 41.8742 29.2858 42.1677 29.0145ZM40.1328 28.4607C40.1328 28.3915 40.072 28.3347 39.9975 28.3347C39.9233 28.3347 39.8979 28.3918 39.941 28.4607C39.9844 28.5299 40.0456 28.5867 40.0763 28.5867C40.1075 28.5867 40.1328 28.5299 40.1328 28.4607ZM85.5069 31.049C85.3205 30.9148 85.0618 29.8578 84.8265 28.2719C84.6734 27.2399 84.0506 25.3267 83.4745 24.1173C83.1778 23.4942 82.8915 22.8429 82.8387 22.6695C82.7862 22.4964 82.67 22.2698 82.581 22.1663C82.4916 22.0621 82.3791 21.793 82.3306 21.5678C82.2615 21.2474 82.289 21.141 82.4572 21.0772C82.6722 20.9961 83.684 21.4101 84.0499 21.7288C85.2611 22.7833 85.7986 23.3357 86.2252 23.9656C86.5035 24.3767 86.7311 24.7725 86.7311 24.8456C86.7311 24.9188 86.8086 25.0683 86.9034 25.1775C87.1756 25.4916 87.7231 27.4647 87.6923 28.0203C87.6333 29.0677 87.4531 29.674 87.016 30.2925C86.5202 30.9944 85.8774 31.3167 85.5069 31.049ZM85.3267 28.8386C85.3266 28.8052 85.3131 28.7732 85.2891 28.7496C85.2652 28.726 85.2328 28.7127 85.1989 28.7126C85.1651 28.7127 85.1326 28.726 85.1087 28.7496C85.0847 28.7732 85.0713 28.8052 85.0712 28.8386C85.0712 28.9078 85.1291 28.9642 85.1989 28.9642C85.2327 28.9641 85.2651 28.9509 85.289 28.9274C85.3129 28.9038 85.3265 28.8719 85.3267 28.8386ZM86.6266 25.1604C86.535 25.0698 86.4757 25.0626 86.4757 25.1415C86.4757 25.3092 86.6266 25.4584 86.712 25.3742C86.7482 25.3385 86.7098 25.2425 86.6266 25.1604ZM85.7092 23.865C85.5445 23.6923 85.3516 23.5509 85.2803 23.5509C85.2094 23.5509 85.3158 23.7204 85.517 23.9274C85.7179 24.1344 85.9107 24.2757 85.9455 24.2415C85.9802 24.2072 85.8738 24.0381 85.7092 23.865ZM49.9632 27.4536C49.8575 27.3865 49.6733 27.3305 49.5532 27.3294C49.3096 27.3273 48.1827 26.2057 47.984 25.7678C47.9138 25.6129 47.6699 25.255 47.4415 24.9723C47.2135 24.6901 47.0268 24.396 47.0268 24.3193C47.0268 24.2429 46.9678 24.1801 46.8958 24.1801C46.8241 24.1801 46.4029 23.8261 45.9599 23.3936C44.5283 21.9946 43.5798 21.2085 42.3049 20.3638C41.5796 19.8834 41.086 19.7857 40.756 20.0572C40.5446 20.2314 39.8802 21.2231 39.8726 21.3766C39.8697 21.4301 39.6055 21.672 39.2849 21.9144C38.9643 22.1567 38.6201 22.4397 38.5199 22.5439C37.6738 23.4196 37.107 23.9264 36.9731 23.9274C36.8856 23.9281 36.5407 24.1223 36.2067 24.3585C35.5643 24.8139 33.554 25.817 33.284 25.817C33.1965 25.817 32.8487 25.9634 32.5114 26.1418C31.7713 26.5343 29.9699 27.0718 29.085 27.1642C28.4854 27.227 28.4318 27.2092 28.2896 26.9019C28.1561 26.6125 28.1655 26.5722 28.3685 26.5722C28.4952 26.5722 28.882 26.4308 29.2276 26.2581C29.5729 26.0854 29.9369 25.9437 30.0361 25.9434C30.2373 25.9427 32.1144 24.9577 32.2219 24.7964C32.2595 24.74 32.4984 24.608 32.7528 24.5031C33.0072 24.3981 33.2348 24.2654 33.2591 24.2076C33.283 24.1498 33.6474 23.9132 34.0686 23.6816C34.9411 23.2016 35.7934 22.4043 36.6587 21.2577C37.3256 20.3738 37.5793 19.948 37.5793 19.7121C37.5793 19.6247 37.6672 19.4809 37.7751 19.3927C37.8829 19.3046 37.9492 19.1704 37.9227 19.0941C37.8963 19.018 38.0096 18.7443 38.1739 18.486C38.3386 18.2279 38.4732 17.8775 38.4732 17.7076C38.4732 17.5374 38.5318 17.2462 38.6035 17.0603C38.6957 16.8208 38.6918 16.6717 38.589 16.55C38.5094 16.4554 38.4804 16.2384 38.5238 16.0675C38.5673 15.8962 38.5329 15.4994 38.4478 15.1853C38.247 14.4452 38.3791 14.2924 39.0631 14.4723C39.3356 14.5437 39.8346 14.625 40.1726 14.6529C40.5106 14.6811 40.8522 14.7681 40.9326 14.847C41.0122 14.9255 41.2525 14.9933 41.4667 14.9969C41.74 15.0019 41.9444 15.1143 42.1514 15.3727C42.5524 15.8734 42.6067 16.2798 42.3208 16.6417C42.0233 17.0185 41.5369 18.0995 41.5369 18.3839C41.5369 18.6005 42.9523 19.3963 43.3381 19.3963C43.4426 19.3963 43.9207 19.5947 44.4006 19.837C44.8804 20.0794 45.3733 20.2778 45.496 20.2778C45.6183 20.2778 45.7852 20.3563 45.8662 20.4526C45.9473 20.549 46.1984 20.701 46.4246 20.7895C46.6504 20.8787 46.9787 21.0472 47.1542 21.1642C47.3297 21.2816 47.6047 21.4176 47.7647 21.4669C47.925 21.5161 48.2062 21.6935 48.39 21.8612C48.5735 22.0289 48.7881 22.1659 48.8677 22.1659C48.9466 22.1659 49.2108 22.3276 49.4551 22.5253C49.6993 22.723 50.0811 22.9771 50.3041 23.0899C50.802 23.3425 51.6228 24.3071 51.6228 24.6401C51.6228 24.775 51.6727 24.9391 51.7339 25.0048C51.7951 25.0708 51.8787 25.4234 51.9199 25.7888C51.993 26.4387 51.9825 26.4658 51.4476 27.0165C50.8874 27.5928 50.4047 27.7352 49.9632 27.4536ZM47.7582 24.2301C47.7158 24.1883 47.6055 24.1837 47.5135 24.2201C47.4115 24.2604 47.4419 24.2904 47.5906 24.2964C47.7252 24.3018 47.8005 24.2718 47.7582 24.2301ZM49.9067 24.0663C49.8669 24.0034 49.7203 23.9817 49.5799 24.0181C49.2289 24.1087 49.26 24.1805 49.6512 24.1805C49.8311 24.1805 49.9458 24.1291 49.9067 24.0663ZM46.8991 23.5509C46.899 23.5176 46.8855 23.4856 46.8615 23.462C46.8376 23.4384 46.8052 23.4251 46.7713 23.425C46.7375 23.4251 46.705 23.4384 46.6811 23.462C46.6571 23.4856 46.6437 23.5176 46.6436 23.5509C46.6436 23.6202 46.7015 23.6769 46.7713 23.6769C46.8052 23.6768 46.8376 23.6635 46.8615 23.6399C46.8855 23.6163 46.899 23.5843 46.8991 23.5509ZM48.495 23.299C48.4516 23.2298 48.3296 23.173 48.2243 23.173C48.1193 23.173 48.0687 23.2301 48.1121 23.299C48.1555 23.3682 48.2768 23.425 48.3821 23.425C48.4874 23.425 48.538 23.3682 48.495 23.299ZM49.5799 23.0474C49.5799 22.9782 49.4938 22.9214 49.3885 22.9214C49.2832 22.9214 49.1967 22.9782 49.1967 23.0474C49.1967 23.1166 49.2832 23.173 49.3885 23.173C49.4938 23.173 49.5799 23.1166 49.5799 23.0474ZM47.8859 22.8454C47.8432 22.8037 47.7332 22.799 47.6409 22.8354C47.5392 22.8754 47.5696 22.9054 47.7184 22.9114C47.8526 22.9168 47.9283 22.8872 47.8859 22.8454ZM45.5586 21.4565C45.8065 21.2645 45.8047 21.2613 45.4946 21.3487C45.1052 21.459 44.8555 21.6642 45.1182 21.6585C45.2199 21.6563 45.4182 21.5657 45.5586 21.4565ZM37.3879 21.1589C37.4313 21.0896 37.4096 21.0329 37.339 21.0329C37.2688 21.0329 37.1762 21.0896 37.1327 21.1589C37.0893 21.2281 37.111 21.2848 37.1812 21.2848C37.2514 21.2848 37.3448 21.2281 37.3879 21.1589ZM38.3454 20.4034C38.3452 20.3701 38.3317 20.3382 38.3078 20.3147C38.2839 20.2911 38.2515 20.2779 38.2177 20.2778C38.1839 20.2779 38.1515 20.2911 38.1276 20.3147C38.1037 20.3382 38.0901 20.3701 38.0899 20.4034C38.0899 20.4726 38.1475 20.5294 38.2177 20.5294C38.2515 20.5293 38.284 20.516 38.3079 20.4924C38.3318 20.4688 38.3453 20.4368 38.3454 20.4034ZM38.6006 19.1487C38.6006 19.0816 38.5144 19.0594 38.4091 19.099C38.3042 19.139 38.2177 19.1936 38.2177 19.2211C38.2177 19.2482 38.3038 19.2703 38.4095 19.2703C38.5144 19.2703 38.6006 19.2157 38.6006 19.1487ZM41.5275 17.0674C41.6299 16.9668 41.6878 16.8647 41.6571 16.8404C41.6263 16.8158 41.1414 16.8226 40.5794 16.8547L39.5581 16.9136L40.0687 17.1434C40.6261 17.394 41.2282 17.3625 41.5275 17.0674ZM39.1112 16.4454C39.1112 16.4147 39.054 16.3548 38.9838 16.3119C38.9136 16.2691 38.8561 16.2941 38.8561 16.3676C38.8561 16.4408 38.9136 16.5007 38.9838 16.5007C39.054 16.5007 39.1112 16.4757 39.1112 16.4454ZM79.2943 20.0273C79.0312 19.7514 78.8155 19.4905 78.8155 19.4477C78.8155 19.4049 78.6816 19.2122 78.5173 19.0202C78.2524 18.7097 77.959 17.9257 77.5677 16.4829C77.3144 15.549 77.888 15.5051 78.3509 16.4222C78.7128 17.1391 79.3909 17.5146 80.5562 17.6434C81.0983 17.7033 81.8619 17.7226 82.2535 17.6862C82.7448 17.6471 83.2379 17.6332 83.7307 17.6445C84.6383 17.673 84.2301 17.6859 87.6883 17.5203C92.6951 17.2812 94.654 17.223 97.8853 17.2191C100.998 17.2155 101.071 17.2209 101.62 17.5167C102.245 17.8529 102.371 18.0806 102.191 18.5466C101.91 19.2746 100.712 19.7154 99.0509 19.7018C90.0591 19.6293 87.6775 19.6426 86.6034 19.7707C84.7154 19.9955 84.3144 20.0337 83.2201 20.0929C81.7385 20.1732 81.0354 20.2524 80.5009 20.3988C79.8285 20.5829 79.823 20.5811 79.2943 20.0273ZM83.9862 19.5223C84.0296 19.4531 83.9721 19.3963 83.8585 19.3963C83.7448 19.3963 83.6873 19.4531 83.7307 19.5223C83.7741 19.5915 83.8317 19.6483 83.8585 19.6483C83.8852 19.6483 83.9428 19.5912 83.9862 19.5223ZM81.4964 19.2703C81.4964 19.2011 81.4106 19.1447 81.305 19.1447C81.2 19.1447 81.1135 19.2011 81.1135 19.2703C81.1135 19.3396 81.1997 19.3963 81.3053 19.3963C81.4103 19.3963 81.4964 19.3396 81.4964 19.2703ZM94.3804 19.1897C94.5024 19.0862 94.3037 19.0455 93.9762 19.1076C93.7829 19.144 93.6251 19.2254 93.6251 19.2875C93.6251 19.3874 94.2414 19.3078 94.3804 19.1897ZM84.5569 18.8978C84.6604 18.8335 84.7056 18.7422 84.6582 18.6951C84.5414 18.5802 84.1777 18.7265 84.1777 18.8889C84.1777 19.0487 84.3097 19.0519 84.5569 18.8978ZM96.9444 18.5648C96.9444 18.5373 96.7146 18.5149 96.4338 18.5149C96.1529 18.5149 95.9231 18.5591 95.9231 18.613C95.9231 18.6665 96.1529 18.689 96.4334 18.6626C96.7146 18.6362 96.9444 18.5923 96.9444 18.5648ZM100.647 17.4314C100.647 17.4043 100.528 17.3822 100.384 17.3822C100.239 17.3822 100.155 17.4361 100.196 17.5024C100.264 17.6113 100.647 17.551 100.647 17.4314Z" fill="#03ACB1"/>
</svg>
