<svg width="247" height="42" viewBox="0 0 247 42" fill="none" xmlns="http://www.w3.org/2000/svg">
<path d="M30.7619 0H31.349C31.2198 0.032899 31.1212 0.101907 31.1581 0.252761C32.1044 0.65477 32.9986 1.17794 33.859 1.74044C34.3081 2.05659 34.8021 2.37033 35.0612 2.87345C35.2119 3.14787 35.1261 3.52099 34.8623 3.69432C34.4509 4.01368 33.8943 3.89412 33.4308 4.06664C33.0868 4.31057 32.8622 4.68129 32.5743 4.9846C31.1797 6.52122 29.5317 7.80188 27.8228 8.96698C27.6544 9.0737 27.4226 9.11061 27.3633 9.3393C27.4098 8.84983 27.7266 8.45263 27.9046 8.00729C28.9094 5.8817 29.7435 3.67987 30.4548 1.44033C30.5759 0.964502 30.7643 0.498299 30.7619 0ZM0 0.361889C0.392955 0.361889 0.786711 0.343433 1.17967 0.356272C1.21415 1.33442 1.21094 2.31336 1.19811 3.2907C1.19651 4.89553 1.20372 6.50036 1.17806 8.10519C1.16282 14.4964 1.20693 20.8885 1.1524 27.2797C1.14518 31.8783 1.16844 36.477 1.14278 41.0748C0.761851 41.0884 0.380925 41.0652 0 41.0571L0 0.361889ZM2.51812 0.334607C7.05394 0.338619 11.5906 0.329792 16.1256 0.336212C16.055 0.633105 15.739 0.741431 15.5458 0.943639C14.6628 1.77334 13.8087 2.63513 13.0036 3.54106C11.6924 5.08651 10.5079 6.75312 9.61375 8.57781C8.317 11.1279 7.55996 13.9315 7.22796 16.7665C6.9577 18.5173 7.04191 20.2955 7.0395 22.0608C7.02346 23.0879 7.16861 24.1053 7.29612 25.1212C7.56718 27.2644 8.10769 29.374 8.90644 31.3816C9.76773 33.439 10.9466 35.3528 12.3316 37.0972C13.4382 38.4156 14.5842 39.7131 15.9034 40.8236C15.9876 40.8846 16.0333 40.9785 16.0863 41.0652C15.9123 41.0852 15.7374 41.0957 15.5618 41.0924C11.3909 41.0644 7.21914 41.1021 3.0482 41.0547C2.84371 41.0507 2.6328 41.0644 2.44273 40.9753C2.42028 39.5157 2.4716 38.0537 2.45075 36.5933C2.45476 34.4252 2.44434 32.2579 2.45476 30.0905C2.50689 26.8022 2.47241 23.5132 2.48203 20.2249C2.48283 17.2792 2.48043 14.3335 2.48283 11.3879C2.53015 8.12685 2.52453 4.86504 2.5109 1.60322C2.53015 1.18035 2.39221 0.748653 2.51812 0.334607ZM230.809 0.343433C232.89 0.316151 234.972 0.341829 237.054 0.336212C239.555 0.337014 242.056 0.326583 244.557 0.356272C244.541 4.81047 244.589 9.26628 244.522 13.7213C244.514 17.8393 244.522 21.9581 244.52 26.0761C244.533 30.7565 244.461 35.437 244.504 40.1175C244.504 40.4401 244.515 40.7635 244.492 41.086C240.355 41.07 236.217 41.086 232.08 41.0764C231.652 41.0644 231.221 41.1085 230.798 41.0355C231.043 40.7386 231.374 40.5332 231.658 40.2764C233.953 38.1588 235.957 35.693 237.376 32.9014C238.655 30.426 239.401 27.7001 239.738 24.9414C240.001 23.1673 239.992 21.3691 239.969 19.5805C239.96 17.6884 239.693 15.806 239.298 13.9588C238.916 12.2328 238.36 10.5437 237.596 8.94853C236.91 7.52103 236.071 6.16736 235.114 4.90596C234.721 4.44457 234.38 3.94066 233.972 3.49211C233.296 2.72339 232.567 2.00684 231.838 1.28948C231.619 1.08165 231.417 0.850559 231.157 0.693286C231.007 0.61144 230.895 0.485461 230.809 0.343433ZM245.843 0.373925C246.226 0.338619 246.613 0.35547 247 0.353062V41.0419C246.595 41.0226 246.19 41.0451 245.787 41.0186C245.829 38.633 245.779 36.2475 245.84 33.8619C245.86 27.2299 245.832 20.598 245.872 13.966C245.86 9.43559 245.902 4.90436 245.843 0.373925ZM43.9387 2.8574C44.7246 2.86622 45.4993 3.01307 46.2812 3.07565C46.9027 3.18639 47.5387 3.18799 48.1578 3.31718C48.6774 3.39742 49.1939 3.50093 49.7063 3.62049C50.1546 3.76814 50.6318 3.90615 50.9822 4.24076C51.0376 4.56734 51.1242 4.97577 50.8708 5.24217C50.5516 5.62573 50.0889 5.83757 49.647 6.04218C49.4986 6.10397 49.2661 6.13285 49.2765 6.34389C49.2853 14.8198 49.2773 23.2965 49.2805 31.7732C49.2749 33.833 49.2957 35.8928 49.2685 37.9526C49.2468 38.4798 49.1113 39.0639 48.6911 39.4186C48.3976 39.6529 48.0431 39.8078 47.6718 39.8607C46.9067 39.9867 46.1176 40.026 45.3518 39.8904C44.8401 39.819 44.4552 39.3833 44.2988 38.9123C44.1673 38.2816 44.1577 37.6332 44.1865 36.9929C44.2507 35.2533 44.2194 33.512 44.2274 31.7716C44.2258 31.4851 44.2715 31.1971 44.2322 30.9122C44.1593 30.8432 44.047 30.848 43.9564 30.828C43.1817 30.7204 42.399 30.6924 41.6187 30.6996C39.0805 30.7028 36.5432 30.6899 34.0058 30.7092C32.5094 30.759 31.0113 30.7389 29.5141 30.7445C27.911 30.6787 26.3063 30.7052 24.7032 30.7108C24.4257 30.7052 24.105 30.779 23.9718 31.0502C23.5139 31.6175 23.1242 32.2964 22.465 32.6535C22.1233 32.7353 21.8459 32.4135 21.5716 32.2506C21.0415 31.7933 20.5162 31.3263 20.0431 30.8103C19.8635 30.58 19.6229 30.3401 19.6622 30.0215C19.8867 29.8394 20.1794 29.8506 20.4521 29.8474C23.2605 29.8346 26.0689 29.8691 28.8773 29.8434C28.8629 27.0069 28.8749 24.1695 28.8846 21.3322C28.8533 20.9101 29.2936 20.7408 29.5558 20.5049C30.3601 19.8421 31.122 19.128 31.9472 18.4892C32.4845 18.0094 33.0483 17.5584 33.5703 17.0609C33.665 16.9863 33.766 16.9205 33.8727 16.8627C33.9874 16.9919 33.9368 17.1741 33.9513 17.3305C33.9609 21.2086 33.916 25.0867 33.9489 28.9648C33.9593 29.2633 33.9096 29.565 33.9737 29.8611C36.3098 29.853 38.6459 29.857 40.982 29.8562C41.731 29.8578 42.48 29.8482 43.2282 29.8065C43.5626 29.78 43.9075 29.7696 44.221 29.638C44.2459 23.6118 44.1994 17.5833 44.2483 11.5564C44.2451 9.65626 44.2531 7.75373 44.1424 5.85602C44.1224 5.40105 44.12 4.94528 44.0943 4.49031C44.0646 3.94387 43.9379 3.40625 43.9387 2.8574ZM86.9047 2.8582C87.9617 2.90394 89.0098 3.06121 90.0596 3.18157C90.7901 3.23052 91.5079 3.38298 92.2248 3.52581C92.5568 3.58358 92.884 3.67827 93.1944 3.81227C93.4727 3.9214 93.7654 4.04577 93.9586 4.2857C94.0116 4.61067 94.0637 5.0183 93.8031 5.27186C93.3997 5.71078 92.8263 5.94108 92.285 6.16174C92.2537 6.27007 92.2112 6.37839 92.216 6.49394C92.2144 16.7392 92.2168 26.9852 92.2152 37.2304C92.2304 37.8475 92.2248 38.4934 91.9522 39.0623C91.6771 39.4836 91.2064 39.7532 90.7172 39.8407C89.916 39.9891 89.0844 40.0333 88.2808 39.8824C87.7852 39.8054 87.3963 39.3977 87.264 38.9259C86.9953 37.951 87.1509 36.9335 87.1501 35.9393C87.1613 31.717 87.1501 27.4947 87.1557 23.2724C87.1653 22.19 87.114 21.1059 87.1974 20.0251C87.0082 19.9528 86.8061 19.932 86.6064 19.9376C85.4596 19.9504 84.3136 19.9272 83.1676 19.9368C83.2414 22.3047 83.2037 24.6742 83.2158 27.0438C83.2125 29.7888 83.2214 32.5339 83.2109 35.2798C83.162 35.8431 83.1315 36.4994 82.6568 36.8886C81.9695 37.4415 81.0344 37.4527 80.1956 37.4832C79.5717 37.4575 78.7826 37.4246 78.4297 36.8164C78.0127 36.0621 78.1081 35.1674 78.1154 34.3385C78.1595 31.3174 78.1218 28.2955 78.137 25.2736C78.1434 21.7711 78.125 18.2694 78.1474 14.7668C78.198 12.7335 78.1498 10.6994 78.1234 8.66608C78.1298 7.16235 78.0143 5.66264 77.8956 4.16533C79.0705 4.21508 80.2309 4.43013 81.4033 4.5184C82.4427 4.69894 83.5157 4.79844 84.4876 5.23816C84.6801 5.32964 84.8413 5.48049 84.964 5.65301C85.0354 5.96756 85.0442 6.35512 84.794 6.59825C84.4082 7.00829 83.8782 7.24099 83.3601 7.43597C83.2069 7.50819 83.1829 7.70478 83.1821 7.85564C83.235 10.0783 83.2069 12.3018 83.2158 14.5253C83.2093 16.0001 83.2342 17.4766 83.1917 18.9514C83.583 19.1255 84.0313 19.0132 84.4475 19.0357C85.373 18.9956 86.3089 19.1063 87.2263 18.9594C87.0499 14.888 87.2953 10.8133 87.1196 6.74269C87.0972 6.09835 87.106 5.45241 87.0603 4.80967C87.0218 4.15811 86.9135 3.51137 86.9047 2.8582ZM173.909 2.88227C174.482 2.84777 175.052 2.94085 175.621 3.00825C176.076 3.03955 176.527 3.11096 176.98 3.16873C177.882 3.22811 178.769 3.41427 179.652 3.59963C180.097 3.76653 180.62 3.84276 180.944 4.22391C181.229 4.60104 181.012 5.10496 180.726 5.40988C180.327 5.75973 179.836 5.99805 179.331 6.1473C179.267 6.71781 179.309 7.29315 179.299 7.86607C179.314 10.4282 179.284 12.9895 179.32 15.5516C178.515 15.4585 177.705 15.4296 176.903 15.3221C176.003 15.2114 175.097 15.164 174.194 15.0982C174.188 12.902 174.23 10.7042 174.202 8.5072C174.169 6.63035 174.259 4.73665 173.909 2.88227ZM218.44 2.85499C219.488 2.90233 220.527 3.0588 221.568 3.17917C222.436 3.24336 223.29 3.4239 224.14 3.60605C224.61 3.7553 225.112 3.89733 225.483 4.24156C225.531 4.585 225.621 5.0183 225.334 5.2839C224.939 5.71399 224.383 5.93787 223.855 6.15372C223.778 6.2139 223.755 6.31741 223.754 6.40808C223.754 13.1516 223.753 19.8959 223.754 26.6402C223.78 30.3305 223.801 34.0208 223.776 37.7119C223.784 38.1941 223.685 38.6812 223.462 39.1113C223.174 39.5358 222.678 39.7781 222.182 39.8567C221.397 39.9891 220.585 40.0309 219.8 39.8792C219.338 39.8006 218.989 39.4178 218.821 38.9965C218.536 37.9486 218.715 36.8581 218.701 35.7901C218.715 31.2685 218.706 26.7469 218.705 22.2253C218.743 17.7606 218.733 13.296 218.727 8.83137C218.739 7.51862 218.631 6.21069 218.609 4.89874C218.602 4.21348 218.441 3.54025 218.44 2.85499ZM157.542 5.03355C159.308 4.82331 161.122 5.16033 162.714 5.9491C165.4 7.25302 167.507 9.60089 168.703 12.3203C169.557 14.1859 170.047 16.2353 170.018 18.2934C170.007 19.1199 170.039 19.9544 169.881 20.7705C169.663 22.344 169.169 23.8734 168.443 25.2857C167.741 26.7244 166.792 28.0468 165.635 29.1541C164.489 30.2093 163.16 31.0992 161.678 31.6023C159.775 32.2659 157.674 32.2563 155.744 31.7098C154.284 31.2669 152.935 30.4757 151.809 29.4502C151.248 28.9351 150.729 28.3766 150.242 27.794C148.729 25.7631 147.639 23.3872 147.263 20.8732C147.179 19.883 147.044 18.8912 147.133 17.8963C147.219 17.0658 147.222 16.2216 147.437 15.4104C147.786 13.7783 148.414 12.2039 149.259 10.7652C150.074 9.38584 151.173 8.19024 152.413 7.18321C153.902 6.0494 155.664 5.2173 157.542 5.03355ZM157.948 6.39444C156.986 6.57739 156.284 7.36296 155.798 8.16457C154.76 9.8384 154.354 11.7979 154.01 13.7109C153.954 14.1458 153.928 14.5847 153.855 15.0172C153.608 17.142 153.569 19.2981 153.807 21.4245C153.902 22.5824 154.066 23.7314 154.298 24.8692C154.633 26.3224 155.021 27.8117 155.882 29.0546C156.283 29.7182 156.825 30.3561 157.588 30.6001C158.738 31.1096 160.125 30.5584 160.847 29.5858C162.014 28.1575 162.547 26.3433 162.922 24.5699C163.075 23.5244 163.272 22.4829 163.306 21.4245C163.48 19.5564 163.473 17.674 163.312 15.806C163.284 14.7749 163.081 13.763 162.938 12.7456C162.581 11.0444 162.115 9.31443 161.103 7.8749C160.716 7.33246 160.224 6.85182 159.629 6.5477C159.095 6.34549 158.507 6.25402 157.948 6.39444ZM201.976 5.04157C204.235 4.74869 206.547 5.39704 208.428 6.65282C210.041 7.70478 211.402 9.13469 212.385 10.7909C213.2 12.2047 213.851 13.7245 214.192 15.3253C214.406 16.4615 214.543 17.617 214.535 18.7757C214.453 20.6381 214.161 22.5182 213.403 24.2345C212.791 25.67 212.023 27.059 210.981 28.2297C209.721 29.7351 208.064 30.9042 206.223 31.5822C204.019 32.3525 201.545 32.2675 199.378 31.4177C197.573 30.6546 195.972 29.4061 194.788 27.8438C194.096 27.0213 193.561 26.0817 193.092 25.1188C192.599 24.1166 192.202 23.0646 191.953 21.9749C191.362 19.2925 191.466 16.4447 192.345 13.8368C193.096 11.5708 194.349 9.44281 196.121 7.82675C197.493 6.58782 199.156 5.64178 200.959 5.20607C201.292 5.12502 201.638 5.10576 201.976 5.04157ZM202.455 6.38963C201.78 6.49314 201.229 6.95051 200.794 7.45042C199.879 8.54331 199.37 9.90902 199.011 11.2707C198.625 12.6469 198.444 14.0655 198.27 15.4802C198.159 17.4349 198.133 19.3952 198.262 21.3498C198.436 22.9996 198.663 24.6518 199.129 26.2486C199.396 27.2957 199.852 28.2907 200.439 29.1967C200.869 29.7888 201.379 30.3858 202.099 30.6177C203.217 31.0815 204.546 30.5768 205.274 29.6588C206.613 28.0091 207.174 25.8947 207.527 23.8389C207.648 22.8239 207.798 21.8104 207.852 20.7882C207.909 19.2082 207.906 17.6258 207.838 16.0459C207.602 13.5744 207.279 11.0396 206.143 8.79607C205.676 7.96236 205.138 7.08853 204.265 6.63115C203.71 6.35913 203.062 6.24519 202.455 6.38963ZM64.204 6.80207C65.0091 6.68331 65.8303 6.68411 66.6419 6.73787C68.156 6.91681 69.5939 7.53708 70.8425 8.40128C71.8177 9.11543 72.7375 9.92587 73.4504 10.9088C74.2091 11.8444 74.752 12.9285 75.2404 14.023C75.8916 15.6062 76.2252 17.3089 76.3166 19.0156C76.3856 20.3653 76.1634 21.7045 75.9012 23.0229C75.1417 25.9982 73.4584 28.8067 70.9355 30.6065C69.8521 31.3872 68.6171 31.9834 67.2979 32.2242C65.9378 32.517 64.5223 32.3911 63.1831 32.0532C61.9128 31.6898 60.742 31.0254 59.7283 30.1828C58.8822 29.5642 58.2407 28.7272 57.6152 27.8983C56.409 26.1595 55.5453 24.1671 55.1901 22.076C55.158 21.67 55.0802 21.2704 55.0369 20.866C54.8701 18.5422 55.1724 16.1606 56.0874 14.0094C56.6275 12.6553 57.3789 11.3956 58.3137 10.2773C59.8333 8.53207 61.904 7.19926 64.204 6.80207ZM65.0821 8.00729C64.8736 8.0426 64.6683 8.10118 64.4887 8.21271C63.7637 8.62114 63.2681 9.32406 62.8759 10.039C62.24 11.233 61.8887 12.5506 61.6137 13.8681C61.5062 14.6216 61.3282 15.3654 61.2704 16.1253C61.2279 17.1725 61.0796 18.214 61.1028 19.2636C61.082 20.2778 61.1558 21.2897 61.2376 22.2999C61.2624 23.1898 61.4348 24.0652 61.5744 24.9423C61.6353 25.4951 61.8174 26.0239 61.9224 26.5687C62.2616 27.8101 62.7027 29.0675 63.5448 30.0649C63.9177 30.5567 64.4437 30.9347 65.0428 31.0944C65.8095 31.2268 66.6563 31.0791 67.2466 30.5431C68.1832 29.707 68.7374 28.5379 69.1536 27.3752C69.6211 26.0271 69.8665 24.6109 70.0012 23.193C70.2988 20.7657 70.2779 18.3047 69.9844 15.879C69.9331 15.4513 69.9211 15.018 69.8208 14.5975C69.5947 13.2687 69.2811 11.9391 68.7061 10.713C68.2594 9.71403 67.6339 8.71663 66.6507 8.1742C66.1567 7.98162 65.605 7.90218 65.0821 8.00729Z" fill="white"/>
<path d="M39.2307 7.53276C39.422 7.46396 39.6109 7.57675 39.7662 7.67914C40.4779 8.20949 41.1383 8.81184 41.7171 9.48457C41.8956 9.66616 41.8836 9.93413 41.874 10.1685C41.3088 10.2189 40.7421 10.1821 40.1761 10.1821C37.4535 10.1693 34.7302 10.2013 32.0076 10.1813C31.6938 10.1901 31.3736 10.1405 31.0654 10.2205C31.1591 10.4837 31.4608 10.5061 31.6386 10.6861C32.4295 11.3524 33.2772 11.9603 33.9745 12.7291C34.2146 12.9507 34.2515 13.3034 34.1954 13.609C34.1394 13.7154 34.0305 13.777 33.9328 13.8394C33.4541 14.0961 32.9258 14.2377 32.3983 14.3561C32.0204 14.4345 31.6978 14.6609 31.4424 14.9433C29.6533 16.8039 27.6896 18.4989 25.5682 19.9708C24.5244 20.7019 23.4076 21.3187 22.3389 22.0114C21.5953 22.4954 20.8003 22.8977 19.9774 23.2265C19.4723 23.4025 18.9608 23.5945 18.4212 23.6176C18.4316 23.5761 18.4516 23.4921 18.462 23.4505C18.7422 23.1529 19.1145 22.9673 19.4299 22.7113C19.7829 22.425 20.1375 22.1378 20.4737 21.8314C22.6335 19.6652 24.6572 17.327 26.1926 14.6697C26.4608 14.1609 26.7658 13.6642 26.9411 13.1122C27.0412 12.7995 26.9819 12.4691 27.002 12.1483C27.0292 11.8772 27.2109 11.6604 27.3894 11.4692C27.7392 11.0724 28.1435 10.7285 28.5446 10.3869C28.5862 10.3245 28.6758 10.2229 28.5646 10.1821C27.9538 10.1517 27.3422 10.1917 26.7314 10.1901C24.7557 10.1821 22.78 10.1701 20.8052 10.1845C20.0375 10.1925 19.2569 10.2117 18.5181 10.4421C18.3612 10.0197 18.1666 9.60216 18.1162 9.15101C18.37 9.15661 18.6197 9.2014 18.8687 9.251C19.3474 9.35579 19.8405 9.36699 20.3288 9.38778C22.5935 9.44058 24.8582 9.39898 27.1228 9.40378C27.4719 9.44618 27.8209 9.45658 28.1707 9.40938C30.9997 9.37418 33.8296 9.42138 36.6586 9.40058C36.9988 9.38618 37.4287 9.48297 37.6753 9.1806C37.945 8.81344 38.2188 8.44787 38.5286 8.1127C38.7328 7.89192 38.9121 7.59275 39.2307 7.53276ZM184.666 16.1591C184.855 16.028 185.139 15.992 185.317 16.1647C186.187 16.8295 186.93 17.6374 187.738 18.3733C188.198 18.8141 188.659 19.2613 189.028 19.7844C189.175 19.9812 189.154 20.37 188.847 20.3724C188.093 20.3996 187.348 20.206 186.597 20.1532C185.337 20.0588 184.091 19.8388 182.831 19.7564C182.06 19.6644 181.294 19.5356 180.52 19.4844C179.549 19.4308 178.597 19.2149 177.627 19.1621C176.981 19.1349 176.346 19.0053 175.703 18.9581C174.666 18.8533 173.622 18.8957 172.583 18.8917C172.462 18.8949 172.352 18.8541 172.245 18.8157C172.19 18.3789 172.081 17.9534 172.004 17.5214C172.308 17.4974 172.604 17.5718 172.898 17.643C173.923 17.8862 174.972 17.987 176.015 18.123C176.664 18.1494 177.302 18.2853 177.95 18.3333C179.147 18.4701 180.348 18.5725 181.539 18.7661C181.7 18.7813 181.886 18.8053 182.036 18.7149C182.602 18.1102 183.181 17.5166 183.771 16.9327C184.053 16.6583 184.333 16.3735 184.666 16.1591ZM34.1202 16.7399C34.1826 16.5247 34.3643 16.3399 34.5629 16.2447C34.8646 16.2463 35.1496 16.3895 35.4546 16.3679C36.2824 16.3559 37.1069 16.2615 37.9354 16.2615C38.527 16.2655 39.1562 16.1879 39.7094 16.4495C39.9832 16.6519 40.0736 17.0103 40.2033 17.3102C40.3434 17.9942 40.5315 18.6709 40.5948 19.3684C40.7292 20.1292 40.8509 20.8971 40.8605 21.6714C40.8757 22.057 40.7148 22.4834 40.3562 22.6665C40.0472 22.6089 39.8199 22.3818 39.6013 22.1746C38.3637 20.9299 37.1245 19.6876 35.8885 18.4413C35.3041 17.8694 34.767 17.2438 34.1202 16.7399ZM174.139 22.2154C175.825 22.3922 177.513 22.5729 179.207 22.6529C179.219 27.6349 179.212 32.6176 179.209 37.5995C179.225 38.1851 179.083 38.8234 178.622 39.2218C178.073 39.6641 177.339 39.7097 176.665 39.7617C176.082 39.7745 175.477 39.7841 174.922 39.5778C174.44 39.3186 174.201 38.769 174.135 38.2475C174.067 37.5787 174.114 36.9052 174.112 36.2341C174.127 32.288 174.113 28.3428 174.121 24.3968C174.143 23.6696 174.08 22.9401 174.139 22.2154Z" fill="white"/>
<path d="M126.365 2.81146C127.419 2.85476 128.464 3.0143 129.511 3.13376C130.382 3.2011 131.24 3.3823 132.092 3.5683C132.555 3.72303 133.068 3.85853 133.412 4.22732C133.469 4.4935 133.485 4.79014 133.393 5.0491C133.014 5.61112 132.34 5.86286 131.74 6.1138C131.638 6.37356 131.676 6.65577 131.672 6.92756C131.672 11.6305 131.672 16.3343 131.672 21.0373C131.68 25.5021 131.655 29.967 131.688 34.4326C131.695 35.5535 131.691 36.6751 131.684 37.7967C131.653 38.2489 131.583 38.7387 131.314 39.1156C130.756 39.8211 129.778 39.8507 128.954 39.8932C128.313 39.8772 127.551 39.9405 127.06 39.4475C126.67 39.0282 126.614 38.4277 126.57 37.8833C126.552 36.9204 126.629 35.9583 126.608 34.9946C126.632 33.7175 126.53 32.4355 126.675 31.1632C126.238 31.2041 125.845 31.4173 125.429 31.544C123.517 32.1597 121.491 32.3249 119.491 32.2912C117.673 32.2543 115.858 32.1333 114.041 32.0651C110.963 31.9713 107.887 31.7765 104.82 31.4991C103.807 31.4414 102.774 31.3772 101.783 31.6434C101.027 31.7989 100.325 32.2607 99.9368 32.9358C99.7155 33.2541 99.697 33.7399 99.28 33.8842C99.005 33.1434 98.8622 32.3137 99.0659 31.5352C99.3289 30.1586 100.363 29.0041 101.637 28.4573C103.159 27.7646 104.89 27.8969 106.496 28.1599C108.22 28.4357 109.912 28.8806 111.635 29.1668C113.653 29.5749 115.678 29.9453 117.71 30.278C118.349 30.4071 119.002 30.4336 119.644 30.537C120.927 30.6404 122.242 30.711 123.504 30.4055C124.641 30.1698 125.712 29.5364 126.37 28.5655C126.567 28.2625 126.613 27.8929 126.619 27.5393C126.611 25.2127 126.598 22.8861 126.636 20.5594C126.651 18.3138 126.638 16.0689 126.642 13.8241C126.634 11.766 126.662 9.70717 126.616 7.64912C126.564 6.74076 126.564 5.82999 126.526 4.92082C126.501 4.2153 126.367 3.51779 126.365 2.81146Z" fill="#F900A3"/>
<path d="M110.455 5.91182C111.49 5.82123 112.526 5.9479 113.549 6.09141C115.267 6.42092 116.942 7.09117 118.331 8.1679C119.521 9.05221 120.461 10.2476 121.106 11.5785C121.829 13.0168 122.112 14.6347 122.13 16.2333C122.058 17.763 121.754 19.3048 121.03 20.6661C120.213 22.2231 118.964 23.5524 117.468 24.4752C115.561 25.7138 113.306 26.3023 111.063 26.5292C110.5 26.5949 109.932 26.6374 109.367 26.5805C109.381 26.5284 109.409 26.4234 109.423 26.3705C109.662 26.2582 109.939 26.2839 110.193 26.2157C111.678 25.8485 113.144 25.3266 114.434 24.492C115.785 23.6357 117.048 22.5767 117.898 21.2041C118.826 19.7497 119.324 18.0316 119.349 16.3087C119.45 14.3276 119.047 12.2864 118.019 10.5747C116.858 8.63772 114.792 7.29081 112.56 6.97733C112.02 6.78571 111.33 6.99336 110.905 6.53637C110.714 6.36079 110.515 6.17479 110.455 5.91182Z" fill="#F900A3"/>
<path d="M109.019 6.82023C109.161 6.78976 109.311 6.72723 109.456 6.79057C109.638 6.82584 109.712 7.01104 109.826 7.13531C110.888 8.33952 111.658 9.82032 111.931 11.4086C112.055 12.3947 112.12 13.3928 111.986 14.3822C111.959 15.1807 111.727 15.9472 111.533 16.7152C111.101 18.1503 110.434 19.5165 109.565 20.7375C108.696 21.9401 107.617 23.0217 106.303 23.7304C105.55 24.0992 104.698 24.403 103.851 24.2451C103.38 24.1505 103.082 23.7232 102.935 23.2959C102.769 22.9038 102.708 22.4035 102.292 22.1863C101.887 21.9826 101.453 21.8303 101.073 21.5801C100.655 21.2418 100.416 20.7407 100.215 20.2549C99.5482 18.3868 99.7118 16.3248 100.289 14.4575C100.736 13.0353 101.48 11.7084 102.45 10.5772C103.677 9.14766 105.285 8.06131 107.046 7.39828C107.684 7.14173 108.357 6.99581 109.019 6.82023ZM107.514 9.47236C107.374 9.83475 107.085 10.1049 106.879 10.4272C106.452 11.0951 105.924 11.6956 105.524 12.3811C105.484 12.4773 105.392 12.535 105.299 12.5679C104.524 12.6168 103.825 12.0924 103.05 12.1574C103.284 12.7907 103.498 13.4313 103.703 14.0743C103.807 14.3301 103.94 14.6628 103.719 14.8969C103.278 15.3908 102.815 15.8654 102.377 16.3617C102.175 16.5861 101.901 16.7922 101.871 17.1153C101.942 17.2548 102.116 17.2107 102.244 17.2251C102.827 17.2524 103.414 17.2837 103.99 17.3855C103.942 18.5913 103.912 19.8099 103.652 20.9941C103.791 21.0229 103.881 20.9099 103.949 20.8105C104.155 20.5315 104.337 20.2372 104.53 19.9502C104.897 19.3249 105.333 18.734 105.613 18.0613C105.838 18.0301 105.92 18.3011 106.05 18.4357C106.522 19.0122 106.97 19.6063 107.419 20.2004C107.484 20.3222 107.613 20.3583 107.742 20.3791C107.815 19.8548 107.751 19.3257 107.755 18.7989C107.755 18.0204 107.763 17.242 107.779 16.4635C107.758 16.1027 108.135 15.9552 108.374 15.7708C109.002 15.2745 109.628 14.7742 110.293 14.3261C110.417 14.2523 110.47 14.1136 110.526 13.9877C110.358 13.8651 110.154 13.8202 109.958 13.7681C109.277 13.5516 108.627 13.2501 107.948 13.0321C107.826 13.0048 107.757 12.9022 107.769 12.7803C107.688 11.6378 107.8 10.4914 107.762 9.3481C107.678 9.38807 107.596 9.4295 107.514 9.47236Z" fill="#F900A3"/>
</svg>
